<?xml version="1.0" encoding="utf-8"?>
<!-- Generator: Adobe Illustrator 27.0.1, SVG Export Plug-In . SVG Version: 6.00 Build 0)  -->
<svg version="1.1" id="Layer_1" xmlns="http://www.w3.org/2000/svg" xmlns:xlink="http://www.w3.org/1999/xlink" x="0px" y="0px"
	 width="1600px" height="574px" viewBox="0 0 1600 574" style="enable-background:new 0 0 1600 574;" xml:space="preserve">
<style type="text/css">
	.st0{opacity:5.000000e-02;fill:#FFFFFF;}
</style>
<path id="large_text_decoration" class="st0" d="M49.4,35.8V574H-1.2V35.8H49.4z M330.5,130.9c19.8,11.5,34.6,25.9,44.2,43.4v-55.6
	h51.1V430c0,27.8-5.9,52.5-17.8,74.2c-11.9,21.7-28.8,38.6-50.9,50.9c-22.1,12.2-47.7,18.3-77,18.3c-40,0-73.4-9.5-100.1-28.4
	c-26.7-18.9-42.4-44.7-47.3-77.3h50c5.6,18.5,17,33.5,34.5,44.8c17.4,11.3,38.4,17,62.8,17c27.8,0,50.5-8.7,68.1-26.1
	c17.6-17.4,26.4-41.9,26.4-73.4v-63.9c-10,17.8-24.9,32.6-44.5,44.5c-19.7,11.9-42.6,17.8-68.9,17.8c-27.1,0-51.6-6.7-73.7-20
	c-22.1-13.3-39.4-32.1-52-56.1c-12.6-24.1-18.9-51.5-18.9-82.3c0-31.1,6.3-58.5,18.9-82c12.6-23.5,29.9-41.8,52-54.8
	c22.1-13,46.6-19.5,73.7-19.5C287.6,113.7,310.6,119.4,330.5,130.9z M360.8,210.4c-9.3-17-21.8-30.1-37.5-39.2
	c-15.8-9.1-33.1-13.6-52-13.6s-36.1,4.4-51.7,13.3c-15.6,8.9-28,21.9-37.3,38.9c-9.3,17.1-13.9,37.1-13.9,60
	c0,23.4,4.6,43.6,13.9,60.9c9.3,17.2,21.7,30.4,37.3,39.5c15.6,9.1,32.8,13.6,51.7,13.6s36.2-4.5,52-13.6
	c15.7-9.1,28.3-22.2,37.5-39.5c9.3-17.2,13.9-37.3,13.9-60.3C374.7,247.5,370,227.4,360.8,210.4z M749.9,146.7
	c23,22.4,34.5,54.8,34.5,97v329.7h-50V251c0-30.4-7.6-53.7-22.8-69.8c-15.2-16.1-36-24.2-62.3-24.2c-26.7,0-47.9,8.3-63.7,25
	c-15.8,16.7-23.6,41-23.6,72.8V574h-50.6V118.7H562V162c10-15.6,23.6-27.6,40.9-36.1c17.2-8.5,36.2-12.8,57-12.8
	C696.9,113.1,727,124.3,749.9,146.7z M868.9,59.2c-6.7-6.7-10-14.8-10-24.5c0-9.6,3.3-17.8,10-24.5c6.7-6.7,14.8-10,24.5-10
	c9.3,0,17.2,3.3,23.6,10c6.5,6.7,9.7,14.8,9.7,24.5c0,9.6-3.3,17.8-9.7,24.5c-6.5,6.7-14.4,10-23.6,10
	C883.7,69.2,875.6,65.8,868.9,59.2z M917.8,118.7v454.8h-50.6V118.7H917.8z M1065.7,160.4v179.6c0,14.8,3.1,25.3,9.5,31.4
	c6.3,6.1,17.2,9.2,32.8,9.2h37.2v42.8h-45.6c-28.2,0-49.3-6.5-63.4-19.5c-14.1-13-21.1-34.3-21.1-63.9V160.4h-39.5v-41.7h39.5V41.9
	h50.6v76.7h79.5v41.7H1065.7z M1482.7,289.9h-243.5c1.9,30,12.1,53.5,30.9,70.3c18.7,16.9,41.4,25.3,68.1,25.3
	c21.9,0,40.1-5.1,54.8-15.3c14.6-10.2,24.9-23.8,30.9-40.9h54.5c-8.1,29.3-24.5,53.1-48.9,71.4c-24.5,18.3-54.9,27.5-91.2,27.5
	c-28.9,0-54.8-6.5-77.5-19.5c-22.8-13-40.7-31.4-53.7-55.3c-13-23.9-19.5-51.6-19.5-83.1c0-31.5,6.3-59.1,18.9-82.8
	c12.6-23.7,30.3-42,53.1-54.8c22.8-12.8,49-19.2,78.7-19.2c28.9,0,54.5,6.3,76.7,18.9c22.2,12.6,39.4,29.9,51.4,52
	c12,22.1,18.1,47,18.1,74.8C1484.4,269,1483.8,279.1,1482.7,289.9z M1419.3,199c-8.5-13.9-20.1-24.5-34.7-31.7
	c-14.6-7.2-30.9-10.8-48.7-10.8c-25.6,0-47.3,8.2-65.3,24.5c-18,16.3-28.3,38.9-30.8,67.8h192.4
	C1432.1,229.5,1427.8,212.9,1419.3,199z M1542.7,339.7c-6.7-6.7-10-14.8-10-24.5c0-9.6,3.3-17.8,10-24.5s14.8-10,24.5-10
	c9.3,0,17.1,3.3,23.6,10c6.5,6.7,9.7,14.8,9.7,24.5c0,9.6-3.2,17.8-9.7,24.5c-6.5,6.7-14.4,10-23.6,10
	C1557.6,349.7,1549.4,346.4,1542.7,339.7z"/>
</svg>
