<?xml version="1.0" encoding="utf-8"?>
<!-- Generator: Adobe Illustrator 27.0.1, SVG Export Plug-In . SVG Version: 6.00 Build 0)  -->
<svg version="1.1" id="Layer_1" xmlns="http://www.w3.org/2000/svg" xmlns:xlink="http://www.w3.org/1999/xlink" x="0px" y="0px"
	 width="86px" height="30px" viewBox="0 0 86 30" style="enable-background:new 0 0 86 30;" xml:space="preserve">
<style type="text/css">
	.st0{fill:#FFFFFF;}
</style>
<path class="st0" d="M0,2.4h4v19.8H0V2.4z M19.1,6.5h4v15.8c0,1.5-0.3,2.8-0.9,3.9c-0.6,1.1-1.5,2.1-2.6,2.7c-1.2,0.7-2.6,1-4.2,1
	c-2.2,0-4-0.5-5.5-1.6c-1.4-1-2.2-2.5-2.4-4.3h3.9c0.2,0.7,0.7,1.3,1.3,1.7s1.5,0.6,2.5,0.6c1.1,0,2.1-0.3,2.8-1
	c0.7-0.7,1.1-1.7,1.1-3.1v-2.4c-0.5,0.7-1.2,1.4-2.1,1.8s-1.9,0.7-3.1,0.7c-1.3,0-2.5-0.3-3.6-1c-1.1-0.7-2-1.6-2.6-2.9
	c-0.6-1.2-0.9-2.7-0.9-4.3c0-1.6,0.3-3,0.9-4.2s1.5-2.2,2.6-2.8c1.1-0.7,2.3-1,3.6-1c1.2,0,2.2,0.2,3.1,0.7c0.9,0.5,1.6,1.1,2.1,1.8
	V6.5z M19.1,14.4c0-1-0.2-1.8-0.6-2.5c-0.4-0.7-0.9-1.2-1.5-1.6c-0.6-0.4-1.3-0.6-2.1-0.6s-1.4,0.2-2,0.5c-0.6,0.4-1.1,0.9-1.5,1.6
	c-0.4,0.7-0.6,1.5-0.6,2.5c0,0.9,0.2,1.8,0.6,2.5c0.4,0.7,0.9,1.3,1.5,1.6c0.6,0.4,1.3,0.6,2,0.6c0.7,0,1.4-0.2,2.1-0.6
	c0.6-0.4,1.1-0.9,1.5-1.6C18.9,16.2,19.1,15.4,19.1,14.4z M35.6,6.3c-1,0-1.9,0.2-2.7,0.6c-0.8,0.4-1.5,0.9-2,1.6v-2h-4v15.7h4v-8.7
	c0-1.2,0.3-2.2,0.9-2.9c0.6-0.7,1.5-1,2.6-1c1.1,0,1.9,0.3,2.5,1c0.6,0.7,0.9,1.6,0.9,2.9v8.7h4V13c0-2.1-0.6-3.8-1.7-5
	C39,6.9,37.5,6.3,35.6,6.3z M47.6,0c-0.7,0-1.3,0.2-1.7,0.7c-0.5,0.4-0.7,1-0.7,1.7s0.2,1.2,0.7,1.7c0.5,0.4,1,0.7,1.7,0.7
	c0.7,0,1.3-0.2,1.7-0.7c0.5-0.4,0.7-1,0.7-1.7s-0.2-1.2-0.7-1.7C48.9,0.2,48.3,0,47.6,0z M45.6,22.3h4V6.5h-4V22.3z M58.1,2.6h-4
	v3.9h-1.9v3.3h1.9v7.6c0,3.3,1.7,4.9,5,4.9h2.5v-3.3h-1.8c-0.6,0-1-0.1-1.3-0.4c-0.3-0.2-0.4-0.6-0.4-1.1V9.8h3.5V6.5h-3.5V2.6z
	 M78,10c0.6,1.2,1,2.5,1,4.1c0,0.6,0,1.1-0.1,1.5H67.4c0.1,1.1,0.5,2,1.2,2.7c0.7,0.6,1.6,1,2.6,1c1.5,0,2.5-0.6,3.1-1.9h4.3
	c-0.5,1.5-1.3,2.8-2.6,3.7c-1.3,1-2.9,1.5-4.7,1.5c-1.5,0-2.9-0.3-4-1c-1.2-0.7-2.1-1.6-2.8-2.9c-0.7-1.2-1-2.6-1-4.3
	c0-1.6,0.3-3.1,1-4.3c0.7-1.2,1.6-2.2,2.8-2.8c1.2-0.7,2.5-1,4.1-1c1.5,0,2.8,0.3,4,1C76.4,7.9,77.3,8.8,78,10z M74.9,12.9
	c0-1-0.4-1.8-1.1-2.5c-0.7-0.6-1.6-0.9-2.6-0.9c-1,0-1.8,0.3-2.5,0.9c-0.7,0.6-1.1,1.4-1.2,2.5H74.9z M85.3,18.5
	c-0.5-0.4-1-0.7-1.7-0.7c-0.7,0-1.3,0.2-1.8,0.7c-0.5,0.4-0.7,1-0.7,1.7c0,0.7,0.2,1.2,0.7,1.7c0.5,0.4,1,0.7,1.8,0.7
	c0.7,0,1.3-0.2,1.7-0.7c0.5-0.4,0.7-1,0.7-1.7C86,19.5,85.8,18.9,85.3,18.5z"/>
</svg>
