<?xml version="1.0" encoding="utf-8"?>
<!-- Generator: Adobe Illustrator 27.8.1, SVG Export Plug-In . SVG Version: 6.00 Build 0)  -->
<svg version="1.1" id="Layer_1" xmlns="http://www.w3.org/2000/svg" xmlns:xlink="http://www.w3.org/1999/xlink" x="0px" y="0px"
	 viewBox="0 0 74 26" style="enable-background:new 0 0 74 26;" xml:space="preserve">
<style type="text/css">
	.st0{fill:#1E0C0C;}
	.st1{fill:#FFFFFF;}
	.st2{display:none;fill:#FFFFFF;}
	.st3{font-family:'Eleanor';}
	.st4{font-size:20px;}
</style>
<rect x="-11.5" y="-14.3" class="st0" width="120.3" height="61.5"/>
<g>
	<path class="st1" d="M0.5,18.8c0.1-0.7,0.3-1.4,0.6-2.1c0.4-0.6,0.8-1.2,1.3-1.6c0.5-0.5,0.8-0.7,1.1-0.9c0.3-0.1,0.4-0.2,0.6-0.3
		c0.1,0,0.2-0.1,0.3-0.2c0-0.1,0.1-0.3,0.2-0.7c0.1-0.5,0.2-1.1,0.4-1.8c0.2-0.7,0.3-1.4,0.5-2.2C5.6,8.4,5.9,7.6,6.1,7
		c0.2-0.7,0.4-1.2,0.6-1.7C6.8,5.2,6.8,5,6.9,4.9C7,4.7,7.1,4.5,7.2,4.4C7.3,4.2,7.4,4.1,7.5,4C7.7,3.9,7.8,3.8,8,3.8
		c0.2,0,0.3,0.1,0.4,0.3c0.1,0.2,0.2,0.4,0.2,0.7c0.1,0.3,0.1,0.6,0.1,0.8s0,0.5,0,0.7l0.1,3.2c0,0.1,0,0.3,0,0.6c0,0.3,0,0.6,0,0.9
		c0,0.3,0,0.6,0,0.9c0,0.3,0,0.5,0,0.7c0,0.3,0,0.4,0,0.5s0.1,0.1,0.2,0.1c0.1,0,0.2,0.1,0.4,0.1c0.2,0.1,0.4,0.1,0.6,0.2
		c0.2,0.1,0.4,0.1,0.5,0.2c0.2,0.1,0.2,0.2,0.2,0.3c0,0.1-0.1,0.2-0.2,0.2c-0.2,0-0.4-0.1-0.7-0.2c-0.3-0.2-0.6-0.2-1-0.2
		c0,0.2,0,0.4,0,0.6c0,0.2,0.1,0.4,0.1,0.6c0.1,0.6,0.1,1.3,0.2,2s0.2,1.4,0.3,2s0.3,1.3,0.5,2c0.2,0.7,0.4,1.3,0.7,1.8L10.6,23
		c0,0,0,0,0,0.1c0,0,0,0-0.1,0c-0.1,0-0.2,0-0.3-0.1c0-0.1-0.1-0.2-0.1-0.3c0-0.1-0.1-0.2-0.1-0.3c-0.1-0.1-0.1-0.3-0.2-0.5
		s-0.1-0.3-0.1-0.5c0-0.1-0.1-0.3-0.1-0.4c-0.1-0.3-0.2-0.8-0.3-1.5c-0.1-0.7-0.3-1.4-0.4-2.2c-0.1-0.8-0.2-1.5-0.3-2.2
		c-0.1-0.7-0.1-1.2-0.1-1.5c-0.2,0-0.3,0-0.4-0.1c-0.1,0-0.3,0-0.5,0c-0.4,0-0.8,0-1.1,0.1S6,13.7,5.8,13.8c-0.2,0-0.3,0.1-0.5,0.1
		S5.1,14,5,14l-0.5,2.4c-0.1,0.3-0.2,0.7-0.3,1.3c-0.1,0.6-0.3,1.1-0.4,1.7c-0.1,0.6-0.3,1.2-0.4,1.7C3.2,21.7,3,22,2.9,22.2
		c-0.2,0.4-0.5,0.6-0.8,0.6c-0.3,0-0.5-0.1-0.8-0.4c-0.2-0.3-0.4-0.6-0.6-1c-0.2-0.5-0.3-0.9-0.4-1.3S0.4,19.3,0.5,18.8z M2.2,22.4
		c0.1-0.1,0.1-0.2,0.1-0.2c0,0,0.1-0.1,0.1-0.2c0.1-0.2,0.2-0.5,0.3-1s0.3-1.1,0.4-1.7c0.1-0.6,0.3-1.2,0.4-1.7
		c0.1-0.6,0.2-0.9,0.2-1.2l0.4-2.1c-0.7,0.4-1.4,0.9-1.9,1.4c-0.6,0.6-1,1.3-1.2,2c-0.3,0.9-0.3,1.8-0.1,2.8c0,0.2,0.1,0.3,0.2,0.5
		c0.1,0.2,0.2,0.4,0.3,0.6c0.1,0.2,0.2,0.3,0.4,0.5C1.9,22.3,2.1,22.4,2.2,22.4z M6.2,13.2c0.3,0,0.5-0.1,0.6-0.1c0.2,0,0.3,0,0.4,0
		c0.2,0,0.4,0,0.5,0c0.1,0,0.3,0,0.6,0.1L8.3,11c0-0.4,0-0.9,0-1.6c0-0.6,0-1.3,0-1.9s0-1.3-0.1-1.8S8,4.7,7.9,4.4
		c-0.1,0-0.2,0.1-0.2,0.2c0,0.1-0.1,0.1-0.2,0.2C7.5,4.9,7.4,5,7.4,5.1S7.3,5.2,7.3,5.3C7.1,5.7,7,6.1,6.8,6.6s-0.3,1-0.5,1.5
		C6.2,8.6,6.1,9.1,6,9.6c-0.1,0.5-0.2,1-0.3,1.4l-0.4,1.8c0,0.1,0,0.2,0,0.3s0,0.2-0.1,0.3L6.2,13.2z"/>
	<path class="st1" d="M10.9,16.8c0-0.2,0-0.4,0.1-0.7c0.1-0.3,0.1-0.6,0.2-0.9c0.1-0.3,0.2-0.5,0.4-0.8c0.2-0.2,0.3-0.3,0.5-0.3
		l0.1,0.1c0.1,0.1,0.1,0.3,0,0.4c-0.1,0.1-0.2,0.3-0.3,0.7c0,0.1-0.1,0.2-0.1,0.5c-0.1,0.2-0.1,0.4-0.2,0.7s-0.1,0.4-0.1,0.6
		s0,0.3,0,0.3c0,0,0,0,0,0c0.1,0,0.2-0.1,0.3-0.2c0.1-0.1,0.2-0.2,0.3-0.4c0.1-0.1,0.2-0.3,0.4-0.4c0.1-0.1,0.2-0.2,0.3-0.3
		c0.1-0.1,0.2-0.1,0.2-0.1c0.2,0,0.3,0.1,0.4,0.4c0.1,0.3,0.1,0.5,0.2,0.8c0,0.3,0.1,0.6,0.2,0.8c0.1,0.3,0.2,0.4,0.3,0.4
		c0.1,0,0.2,0,0.3-0.1c0.1-0.1,0.2-0.2,0.3-0.3c0.1-0.1,0.2-0.3,0.3-0.4c0.1-0.1,0.1-0.2,0.2-0.3c0.2-0.3,0.3-0.6,0.4-0.7
		c0.1-0.1,0.1-0.2,0.1-0.3c0-0.1,0-0.1,0-0.2c0-0.1,0-0.2,0-0.3c0-0.1,0-0.2,0-0.3c0-0.1,0-0.3,0-0.4c0-0.1,0.1-0.2,0.1-0.3
		c0.1-0.1,0.1-0.1,0.2-0.1c0.2,0,0.3,0,0.4,0.2c0,0.1,0.1,0.2,0,0.4s0,0.3-0.1,0.5c0,0.2,0,0.3,0,0.5c0,0.2,0.2,0.3,0.3,0.4
		c0.2,0.1,0.5,0.1,0.9,0.1c0.4,0,0.7-0.1,1-0.2c0.3-0.1,0.6-0.3,0.9-0.4c0.3-0.2,0.5-0.3,0.7-0.5c0.2-0.2,0.4-0.3,0.5-0.4
		c0,0,0.1,0,0.2,0c0.1,0,0.2,0.1,0.2,0.2c0,0.1-0.1,0.3-0.3,0.5c-0.2,0.2-0.5,0.4-0.9,0.6c-0.3,0.2-0.7,0.4-1.1,0.5
		c-0.4,0.2-0.7,0.2-1,0.2h-0.4c-0.2,0-0.4,0-0.6,0c-0.2,0-0.4-0.1-0.6-0.3c-0.1-0.1-0.1-0.1-0.1-0.1c0,0,0,0-0.2,0
		c0,0.2-0.1,0.4-0.3,0.6c-0.1,0.2-0.3,0.5-0.5,0.7c-0.2,0.2-0.4,0.4-0.6,0.6c-0.2,0.2-0.4,0.2-0.6,0.2c-0.2,0-0.4-0.1-0.5-0.3
		c-0.1-0.2-0.2-0.4-0.3-0.6c-0.1-0.3-0.1-0.5-0.1-0.8c0-0.3,0-0.5,0-0.6c-0.1,0.1-0.2,0.2-0.4,0.3c-0.1,0.1-0.2,0.3-0.4,0.4
		c-0.1,0.1-0.3,0.3-0.4,0.4c-0.1,0.1-0.3,0.2-0.4,0.2c-0.2,0-0.3-0.1-0.4-0.2C11,17.9,11,17.8,11,17.6c0-0.2,0-0.3,0-0.5
		S10.9,16.9,10.9,16.8z"/>
	<path class="st1" d="M20.6,15.9c0-0.3,0.1-0.5,0.2-0.8c0.2-0.3,0.4-0.5,0.6-0.7c0.2-0.2,0.5-0.4,0.7-0.5s0.5-0.2,0.7-0.2
		c0.3,0,0.5,0.2,0.5,0.6c0,0.1-0.1,0.3-0.2,0.4c-0.1,0.1-0.3,0.3-0.5,0.4c-0.2,0.1-0.4,0.2-0.6,0.3c-0.2,0.1-0.3,0.2-0.5,0.2
		c-0.1,0-0.2,0.1-0.3,0.1s-0.1,0.1-0.1,0.3c0,0.3,0.1,0.5,0.3,0.8c0.2,0.3,0.5,0.4,0.8,0.4s0.6,0,1-0.1c0.3-0.1,0.7-0.2,1-0.4
		c0.3-0.1,0.7-0.3,1-0.5s0.6-0.4,0.8-0.5c0,0,0.1-0.1,0.2-0.1c0.1-0.1,0.2-0.1,0.3-0.1s0.1,0.1,0.1,0.2c0,0.1,0,0.1-0.1,0.2
		s-0.2,0.1-0.3,0.2c-0.1,0.1-0.2,0.1-0.3,0.2c-0.1,0.1-0.2,0.1-0.2,0.1c-0.2,0.1-0.5,0.3-0.8,0.4S24.4,17,24,17.1
		c-0.3,0.1-0.6,0.2-0.9,0.3c-0.3,0.1-0.6,0.1-0.9,0.1c-0.4,0-0.8-0.2-1.2-0.5C20.7,16.8,20.6,16.4,20.6,15.9z M21.6,15.1
		c0.1,0,0.2,0,0.3-0.1c0.1-0.1,0.2-0.1,0.4-0.2c0.1-0.1,0.2-0.2,0.3-0.3c0.1-0.1,0.2-0.2,0.2-0.3c-0.2,0-0.4,0.1-0.7,0.3
		S21.7,14.9,21.6,15.1z"/>
	<path class="st1" d="M25.4,10.3c0-0.1,0.1-0.1,0.2-0.2c0.1-0.1,0.3-0.1,0.4-0.2c0.2-0.1,0.3-0.1,0.5-0.2c0.2,0,0.3-0.1,0.3-0.1
		l1.7-0.4c0.9-0.2,1.9-0.5,3-0.7c1.1-0.2,2.1-0.4,3-0.6c0.1,0,0.2,0,0.2-0.1c0,0,0.1,0,0.1-0.1c0.1-0.1,0.2-0.3,0.4-0.5
		C35.6,7,35.8,6.7,36,6.5c0.2-0.3,0.5-0.5,0.7-0.8c0.2-0.2,0.4-0.3,0.5-0.3c0.1,0,0.2,0.1,0.3,0.2c0,0.1,0.1,0.3,0,0.4
		c0,0.2,0,0.3-0.1,0.5s-0.1,0.3-0.1,0.3c0,0.1-0.1,0.2-0.1,0.4s-0.1,0.3-0.1,0.4c0.1,0,0.5,0,1-0.1c0.5,0,1.1,0,1.7,0
		c0.4,0,0.8,0,1.2,0s0.7,0.1,1,0.1c0.3,0,0.6,0.1,0.8,0.2c0.2,0.1,0.3,0.2,0.3,0.3c0,0.2,0,0.3-0.1,0.4c-0.1,0.1-0.1,0.1-0.2,0.1
		c-0.1,0-0.2-0.1-0.2-0.2c0,0,0,0,0-0.1c0,0,0-0.1,0-0.1s-0.1-0.1-0.2-0.1c-0.1,0-0.3-0.1-0.5-0.1c-0.2,0-0.4,0-0.6,0
		c-0.2,0-0.3,0-0.5,0c-0.3,0-0.6,0-0.8,0c-0.2,0-0.5,0-0.9,0h-0.5c-0.3,0-0.6,0-0.9,0.1c-0.3,0-0.5,0.1-0.8,0.1
		c-0.1,0.5-0.2,1.1-0.4,1.7c-0.1,0.6-0.3,1.3-0.4,2c-0.1,0.7-0.3,1.3-0.4,2c-0.1,0.7-0.2,1.2-0.3,1.7c-0.1,0.3-0.1,0.7-0.2,1
		c0,0.3-0.1,0.6-0.1,1l-0.1,1l-0.3,3.5c0,0.2,0,0.4,0,0.5c0,0.1,0,0.2,0,0.4c0,0.1,0,0.3,0,0.4c0,0.2,0,0.4,0.1,0.6
		c0,0-0.1,0.1-0.1,0.1c0,0-0.1,0.1-0.1,0.1c0,0-0.1,0-0.1-0.1c-0.1-0.1-0.2-0.2-0.2-0.5s0-0.5,0-0.6l0.2-3.9c0-0.1,0-0.4,0.1-0.7
		s0.1-0.7,0.1-1.1c0-0.4,0.1-0.8,0.1-1.1c0-0.4,0.1-0.6,0.1-0.8c0-0.3,0.1-0.6,0.1-0.9c0-0.3,0.1-0.6,0.1-0.9c0-0.2,0.1-0.5,0.2-1
		c0.1-0.5,0.2-1,0.3-1.6s0.2-1.1,0.3-1.6c0.1-0.5,0.2-0.8,0.3-0.9c-0.2,0-0.3,0-0.5,0s-0.4,0.1-0.5,0.1c-0.1,0-0.2,0-0.2,0.1
		s-0.1,0-0.2,0.1l-3.6,4.9c-0.3,0.4-0.6,0.9-0.9,1.3c-0.3,0.5-0.6,0.9-0.9,1.4c-0.2,0.3-0.4,0.5-0.5,0.7c-0.1,0.1-0.1,0.2-0.2,0.3
		c0,0.1,0,0.1,0,0.2c0,0.1,0.1,0.1,0.1,0.3c0.2,0.6,0.2,1.1,0.1,1.6s-0.3,0.9-0.6,1.4c-0.2,0.4-0.5,0.7-0.7,0.9
		c-0.3,0.2-0.5,0.3-0.7,0.3c-0.2,0-0.3-0.1-0.4-0.2c-0.1-0.1-0.2-0.4-0.2-0.7c0-0.1,0-0.3,0.1-0.6c0.1-0.2,0.1-0.4,0.1-0.5
		c0.2-0.5,0.3-1,0.6-1.3c0.2-0.4,0.4-0.8,0.7-1.3c-0.1-0.2-0.2-0.3-0.4-0.5c-0.2-0.1-0.4-0.2-0.6-0.3c-0.2-0.1-0.4-0.2-0.6-0.3
		c-0.2-0.1-0.3-0.2-0.4-0.2c-0.2-0.2-0.3-0.4-0.3-0.7c0-0.3,0-0.5,0.1-0.7c0.1-0.2,0.2-0.4,0.4-0.6c0.2-0.2,0.4-0.2,0.6-0.2
		c0.2,0,0.3,0.1,0.5,0.2c0.1,0.1,0.2,0.2,0.2,0.4s0,0.3,0,0.5s-0.1,0.3-0.2,0.4c-0.1,0.1-0.1,0.2-0.2,0.3c0.3,0.1,0.5,0.3,0.7,0.5
		l0.6,0.5l3.6-5l1.8-2.4C33.9,9.1,34,9,34,8.9s0.1-0.2,0.2-0.3c-0.1,0-0.4,0-0.8,0.1C33,8.9,32.5,9,32.1,9.1
		c-0.5,0.1-0.9,0.2-1.3,0.3c-0.4,0.1-0.7,0.2-0.8,0.2l-3.2,0.7l-0.5,0.1c-0.1,0-0.1,0-0.2,0.1s-0.2,0-0.2,0
		C25.5,10.5,25.4,10.4,25.4,10.3z M26.7,15.4c0.1,0,0.1-0.1,0.2-0.1c0,0,0.1-0.1,0.1-0.2c0-0.1,0.1-0.1,0.1-0.2c0-0.1,0-0.1,0-0.2
		c0,0,0,0,0,0c-0.1,0-0.1,0.1-0.2,0.2S26.6,15.2,26.7,15.4z M27.1,21.5c0.2-0.1,0.4-0.2,0.5-0.4c0.2-0.2,0.3-0.4,0.4-0.6
		c0.2-0.3,0.3-0.5,0.3-0.7c0.1-0.2,0.1-0.4,0.1-0.6s0-0.4,0-0.5c0-0.2-0.1-0.3-0.1-0.4h-0.1c0,0.1-0.1,0.2-0.2,0.4
		c-0.1,0.1-0.2,0.3-0.2,0.4c-0.1,0.1-0.1,0.3-0.2,0.4c-0.1,0.1-0.1,0.2-0.2,0.4c-0.1,0.3-0.2,0.6-0.3,0.9
		C27.1,20.9,27.1,21.2,27.1,21.5z M35.6,7.8c0.2,0,0.3,0,0.4,0c0.1,0,0.3,0,0.4-0.1l0.3-1.3c0,0-0.1,0.1-0.2,0.2
		c-0.1,0.1-0.2,0.3-0.4,0.4s-0.2,0.3-0.3,0.4C35.7,7.7,35.6,7.7,35.6,7.8z"/>
	<path class="st1" d="M37,16.7c0-0.2,0-0.5,0.2-0.8c0.1-0.3,0.2-0.6,0.3-0.8c0.1-0.3,0.3-0.5,0.4-0.7c0.1-0.2,0.3-0.3,0.4-0.3
		c0.1,0,0.1,0,0.2,0c0.1,0,0.1,0.1,0.1,0.2c0,0.1-0.1,0.2-0.2,0.4c-0.1,0.2-0.3,0.4-0.4,0.7c-0.1,0.3-0.2,0.6-0.3,0.9
		c-0.1,0.3-0.1,0.7,0,1c0.2-0.1,0.4-0.2,0.5-0.4c0.2-0.2,0.3-0.4,0.3-0.7c0-0.1,0-0.2,0-0.3c0-0.1,0-0.2,0-0.3s0-0.2,0-0.3
		c0-0.1,0.1-0.1,0.2-0.1c0.1,0,0.3,0.1,0.4,0.2c0.4,0.3,0.8,0.4,1.3,0.4c0.3,0,0.5,0,0.7-0.1c0.2-0.1,0.4-0.1,0.6-0.2
		s0.4-0.1,0.5-0.2c0.1-0.1,0.3-0.1,0.3-0.1c0.1,0,0.1,0,0.2,0.1c0.1,0,0.1,0.1,0,0.2s-0.1,0.2-0.3,0.3c-0.1,0.1-0.4,0.2-0.7,0.3
		c-0.2,0.1-0.4,0.1-0.7,0.2c-0.2,0.1-0.5,0.1-0.7,0.1c-0.3,0-0.5,0-0.6,0c-0.1,0-0.3-0.1-0.4-0.1c-0.1,0-0.2-0.1-0.2-0.1
		c-0.1,0-0.2-0.1-0.3-0.1c0,0.2,0,0.5-0.1,0.7c-0.1,0.2-0.2,0.4-0.3,0.6c-0.1,0.2-0.3,0.3-0.4,0.4c-0.2,0.1-0.3,0.2-0.5,0.2
		s-0.3,0-0.3-0.1s-0.1-0.2-0.2-0.3c0-0.1-0.1-0.3-0.1-0.4C37,17,37,16.8,37,16.7z"/>
	<path class="st1" d="M43.2,15.8C43.2,15.8,43.3,15.7,43.2,15.8C43.2,15.8,43.3,15.7,43.2,15.8l0.7-1.1c0.1-0.1,0.2-0.3,0.4-0.5
		c0.2-0.2,0.3-0.3,0.5-0.3c0.1,0,0.2,0.1,0.3,0.2c0.1,0.1,0.1,0.3,0.1,0.5c0,0.2,0,0.4,0,0.6c0,0.2,0,0.4,0,0.5l0.2-0.2
		c0.3-0.5,0.5-0.8,0.7-1s0.4-0.3,0.5-0.3c0.1,0,0.2,0,0.3,0.2c0.1,0.1,0.2,0.2,0.2,0.3c0.1,0.1,0.1,0.3,0.2,0.4
		c0.1,0.1,0.1,0.3,0.2,0.3c0.2,0.2,0.4,0.4,0.6,0.5c0.2,0.1,0.5,0.2,0.8,0.2c0.4,0,0.8-0.1,1.2-0.3c0.1,0,0.2-0.1,0.2-0.1
		c0.1,0,0.1-0.1,0.2-0.2c0,0,0.1-0.1,0.2-0.1c0.1-0.1,0.2-0.1,0.3-0.1c0.1,0,0.1,0.1,0.1,0.2c0,0.1-0.1,0.2-0.2,0.3
		c-0.1,0.1-0.3,0.3-0.5,0.4s-0.5,0.2-0.8,0.3c-0.3,0.1-0.6,0.1-0.9,0.1c-0.3,0-0.5,0-0.8-0.1c-0.3-0.1-0.5-0.2-0.7-0.5
		c-0.1-0.2-0.3-0.4-0.4-0.6c-0.1-0.3-0.2-0.5-0.2-0.7c-0.1,0-0.1,0.1-0.2,0.1c-0.1,0.1-0.1,0.1-0.2,0.2c-0.1,0.1-0.2,0.3-0.3,0.4
		c-0.1,0.1-0.2,0.3-0.3,0.5c0,0.1-0.1,0.1-0.2,0.2s-0.1,0.1-0.2,0.1c-0.1,0-0.3-0.1-0.3-0.2c-0.1-0.1-0.1-0.3-0.1-0.5
		c0-0.2,0-0.4,0-0.6c0-0.2,0-0.4,0-0.6c-0.1,0-0.1,0-0.1,0c0,0,0,0-0.1,0l-0.5,0.7c-0.1,0.1-0.2,0.3-0.3,0.5
		c-0.1,0.2-0.2,0.4-0.3,0.5c-0.1,0.2-0.2,0.3-0.2,0.5c-0.1,0.1-0.1,0.2-0.1,0.2C43.1,17,43,17,42.9,17c-0.2,0-0.3-0.2-0.3-0.5
		c0-0.1,0-0.3,0-0.6c0-0.2,0.1-0.5,0.1-0.8c0.1-0.3,0.1-0.5,0.2-0.7c0.1-0.2,0.2-0.3,0.3-0.3c0.1,0,0.2,0,0.2,0.1c0,0.1,0,0.2,0,0.3
		c0,0.1-0.1,0.3-0.1,0.5C43.2,15.4,43.2,15.6,43.2,15.8z"/>
	<path class="st1" d="M52.1,14.6c0-0.1,0.1-0.1,0.1-0.2c0.1-0.1,0.1-0.1,0.2-0.1c0.1,0,0.2,0,0.2,0.1c0,0.1,0,0.2,0,0.3
		s-0.1,0.3-0.1,0.6c-0.1,0.2-0.1,0.5-0.1,0.9c0,0.4,0.1,0.7,0.4,0.9c0.3,0.2,0.6,0.4,0.9,0.4c0.4,0,0.8-0.1,1.2-0.3
		c0.4-0.2,0.7-0.4,1-0.6l1.4-1.1c0.1-0.1,0.2-0.2,0.3-0.2c0.1,0,0.1,0,0.1,0.1c0,0,0,0.1,0,0.1c0,0.1-0.1,0.3-0.2,0.4
		s-0.3,0.3-0.5,0.5s-0.4,0.3-0.6,0.4S56.2,17,56.2,17c-0.3,0.2-0.7,0.4-1.2,0.6c-0.4,0.2-0.9,0.3-1.3,0.3c-0.6,0-1-0.2-1.3-0.5
		c-0.3-0.3-0.5-0.8-0.6-1.3c0,0-0.1,0.1-0.2,0.2c-0.1,0.1-0.2,0.2-0.2,0.4c-0.1,0.1-0.2,0.2-0.3,0.3c-0.1,0.1-0.2,0.1-0.4,0.1
		c-0.1,0-0.2,0-0.2-0.1c-0.2-0.1-0.2-0.2-0.3-0.4c0-0.2,0-0.4,0.1-0.7s0.2-0.5,0.4-0.7c0.2-0.2,0.3-0.4,0.5-0.5
		c0.3-0.2,0.5-0.3,0.6-0.3C51.9,14.5,52,14.5,52.1,14.6z M50.7,16.7c0.1-0.1,0.2-0.2,0.4-0.3c0.1-0.1,0.2-0.3,0.3-0.5
		c0.1-0.2,0.2-0.3,0.3-0.5c0.1-0.2,0.2-0.3,0.2-0.4c-0.1,0-0.2,0-0.3,0.1c-0.1,0.1-0.2,0.1-0.2,0.2c-0.1,0.1-0.1,0.1-0.2,0.2
		c0,0.1-0.1,0.1-0.2,0.2c-0.1,0.1-0.2,0.3-0.3,0.5C50.7,16.3,50.7,16.5,50.7,16.7z"/>
	<path class="st1" d="M51.8,11.3c0-0.1,0-0.2,0-0.2c0-0.1,0-0.1,0.2-0.3c0.2-0.2,0.6-0.4,1.1-0.6s1.1-0.4,1.7-0.6
		c0.6-0.2,1.2-0.4,1.8-0.5c0.6-0.1,1-0.3,1.3-0.3c0.1,0,0.2-0.1,0.3-0.1c0.1,0,0.2,0,0.3-0.1c0.2,0,0.3,0,0.3,0c0,0,0.1-0.1,0.1-0.2
		C58.9,8.3,59,8.1,59,7.9c0.1-0.2,0.2-0.3,0.4-0.3c0.1,0,0.2,0,0.3,0.1c0,0.1,0,0.2,0,0.3c0,0.1,0,0.2-0.1,0.3s-0.1,0.2-0.1,0.2
		c0.1,0,0.2,0,0.4,0s0.3,0,0.4-0.1c0.3-0.1,0.6-0.1,0.8-0.1c0.3,0,0.5-0.1,0.8-0.1c0.2,0,0.5,0,0.8,0c0.3,0,0.5,0,0.9,0
		c0.4,0,0.7,0.1,1,0.2c0.2,0.1,0.4,0.3,0.5,0.5c0.1,0.2,0.1,0.3,0,0.5c-0.1,0.1-0.2,0.2-0.3,0.2c-0.1,0-0.1,0-0.1,0
		c0-0.2,0-0.3,0-0.4c0-0.1-0.1-0.1-0.3-0.2c-0.3-0.1-0.6-0.1-1.1-0.1c-0.3,0-0.6,0-1,0s-0.7,0.1-1,0.1C60.9,9,60.6,9,60.4,9
		c-0.3,0-0.5,0.1-0.6,0.1c-0.1,0-0.2,0-0.3,0c-0.1,0-0.1,0-0.1,0.1c0,0,0,0.1,0,0.1c0,0.1,0,0.1-0.1,0.2l-0.5,2.3
		c-0.1,0.4-0.2,1-0.4,1.7s-0.2,1.4-0.3,2.2c-0.1,0.8-0.2,1.5-0.2,2.1c0,0.7,0,1.2,0.1,1.5c0.1,0.2,0.1,0.3,0.1,0.4s0.1,0.1,0.1,0.2
		s0.1,0.1,0.1,0.1c0,0,0,0.1,0,0.1c0,0.1-0.1,0.2-0.2,0.2c-0.2,0-0.3-0.2-0.6-0.5c-0.2-0.3-0.3-0.8-0.3-1.6c0-1.2,0.1-2.4,0.2-3.5
		c0.2-1.2,0.4-2.3,0.6-3.5l0.4-2c-0.1,0-0.3,0-0.7,0.1c-0.3,0.1-0.7,0.2-1,0.3c-0.4,0.1-0.7,0.2-1,0.3c-0.3,0.1-0.6,0.2-0.7,0.2
		L52.7,11c-0.3,0.1-0.5,0.2-0.5,0.3s-0.1,0.1-0.2,0.1c0,0-0.1,0-0.1,0C51.9,11.4,51.8,11.4,51.8,11.3z"/>
	<path class="st1" d="M59.3,15.9c0-0.3,0.1-0.5,0.2-0.8c0.2-0.3,0.4-0.5,0.6-0.7c0.2-0.2,0.5-0.4,0.7-0.5c0.3-0.1,0.5-0.2,0.7-0.2
		c0.3,0,0.5,0.2,0.5,0.6c0,0.1-0.1,0.3-0.2,0.4c-0.1,0.1-0.3,0.3-0.5,0.4c-0.2,0.1-0.4,0.2-0.6,0.3c-0.2,0.1-0.3,0.2-0.4,0.2
		c-0.1,0-0.2,0.1-0.3,0.1S60,15.8,60,15.9c0,0.3,0.1,0.5,0.3,0.8c0.2,0.3,0.5,0.4,0.8,0.4c0.3,0,0.6,0,1-0.1c0.3-0.1,0.7-0.2,1-0.4
		s0.7-0.3,1-0.5s0.6-0.4,0.8-0.5c0,0,0.1-0.1,0.2-0.1c0.1-0.1,0.2-0.1,0.3-0.1c0.1,0,0.1,0.1,0.1,0.2c0,0.1,0,0.1-0.1,0.2
		s-0.2,0.1-0.3,0.2c-0.1,0.1-0.2,0.1-0.3,0.2c-0.1,0.1-0.2,0.1-0.2,0.1c-0.2,0.1-0.5,0.3-0.8,0.4s-0.6,0.3-0.9,0.4
		c-0.3,0.1-0.6,0.2-1,0.3c-0.3,0.1-0.6,0.1-0.8,0.1c-0.4,0-0.8-0.2-1.2-0.5C59.5,16.8,59.3,16.4,59.3,15.9z M60.4,15.1
		c0.1,0,0.2,0,0.3-0.1c0.1-0.1,0.2-0.1,0.4-0.2c0.1-0.1,0.2-0.2,0.3-0.3c0.1-0.1,0.2-0.2,0.2-0.3c-0.2,0-0.4,0.1-0.7,0.3
		C60.6,14.7,60.5,14.9,60.4,15.1z"/>
	<path class="st1" d="M64.7,15.1c0-0.2,0.1-0.5,0.3-0.7s0.4-0.3,0.7-0.3c0.1,0,0.3,0,0.3,0.1s0.1,0.2,0.1,0.3c0,0.1,0,0.3-0.1,0.4
		c-0.1,0.2-0.3,0.3-0.5,0.5c0.1,0.2,0.2,0.4,0.4,0.5c0.2,0.1,0.3,0.3,0.4,0.4c0.1,0.2,0.2,0.3,0.4,0.5s0.2,0.3,0.2,0.6
		c0.1,0,0.2,0,0.3-0.1s0.2-0.1,0.3-0.1c0.4-0.1,0.9-0.3,1.3-0.5c0.5-0.2,0.9-0.5,1.2-0.8c0,0,0.1-0.1,0.2-0.1s0.2-0.1,0.2-0.2
		c0.1-0.1,0.2-0.1,0.3-0.2c0.1-0.1,0.2-0.1,0.2-0.1c0.1,0,0.1,0.1,0.1,0.2c0,0.1-0.1,0.3-0.3,0.4s-0.4,0.3-0.5,0.4
		c-0.4,0.3-0.7,0.5-1.1,0.7c-0.3,0.2-0.7,0.3-1,0.4c-0.3,0.1-0.6,0.2-0.8,0.2c-0.2,0.1-0.4,0.1-0.5,0.2c0,0.5-0.2,1-0.5,1.4
		c-0.3,0.4-0.7,0.7-1.1,1c-0.2,0.1-0.4,0.2-0.6,0.2c-0.2,0-0.3,0-0.5,0h-0.4c-0.2,0-0.3-0.1-0.5-0.2c-0.2-0.1-0.2-0.3-0.3-0.5
		c0-0.2,0.1-0.5,0.2-0.7c0.2-0.3,0.5-0.5,1-0.8c0.2-0.1,0.5-0.3,0.9-0.5c0.4-0.2,0.7-0.3,1-0.3c0-0.1-0.1-0.2-0.1-0.3
		c-0.1-0.1-0.1-0.2-0.2-0.3c-0.1,0-0.1-0.1-0.1-0.1c0,0-0.1-0.1-0.1-0.1c-0.3-0.2-0.5-0.5-0.7-0.7S64.7,15.5,64.7,15.1z M64.2,20
		c0.3,0,0.5-0.1,0.8-0.2c0.3-0.1,0.5-0.3,0.7-0.5s0.4-0.4,0.5-0.6s0.2-0.5,0.2-0.7c-0.3,0.1-0.5,0.2-0.8,0.3s-0.5,0.2-0.8,0.4
		c-0.2,0.1-0.4,0.3-0.6,0.4c-0.2,0.2-0.3,0.3-0.4,0.5s-0.1,0.3,0,0.4C63.7,20,63.9,20,64.2,20z M65.4,14.9c0.1-0.1,0.1-0.1,0.2-0.1
		c0,0,0-0.1,0.1-0.2c-0.1,0-0.2,0.1-0.2,0.1C65.4,14.7,65.4,14.8,65.4,14.9z"/>
	<path class="st1" d="M71.7,17.1c-0.2,0-0.3,0-0.4-0.1c-0.1-0.1-0.1-0.2-0.1-0.3c0-0.1,0.1-0.2,0.1-0.3c0.1-0.1,0.2-0.1,0.2-0.1h0.1
		c0.1,0,0.1,0,0.1,0c0,0,0.1,0.1,0.2,0.2c0.2,0.2,0.2,0.3,0.1,0.5C72,17,71.9,17.1,71.7,17.1z"/>
</g>
<text transform="matrix(1 0 0 1 0.3409 17.2449)" class="st2 st3 st4">Awestomates.</text>
</svg>
