<?xml version="1.0" encoding="utf-8"?>
<!-- Generator: Adobe Illustrator 27.8.1, SVG Export Plug-In . SVG Version: 6.00 Build 0)  -->
<!DOCTYPE svg PUBLIC "-//W3C//DTD SVG 1.1//EN" "http://www.w3.org/Graphics/SVG/1.1/DTD/svg11.dtd" [
	<!ENTITY ns_extend "http://ns.adobe.com/Extensibility/1.0/">
	<!ENTITY ns_ai "http://ns.adobe.com/AdobeIllustrator/10.0/">
	<!ENTITY ns_graphs "http://ns.adobe.com/Graphs/1.0/">
	<!ENTITY ns_vars "http://ns.adobe.com/Variables/1.0/">
	<!ENTITY ns_imrep "http://ns.adobe.com/ImageReplacement/1.0/">
	<!ENTITY ns_sfw "http://ns.adobe.com/SaveForWeb/1.0/">
	<!ENTITY ns_custom "http://ns.adobe.com/GenericCustomNamespace/1.0/">
	<!ENTITY ns_adobe_xpath "http://ns.adobe.com/XPath/1.0/">
]>
<svg version="1.1" id="Layer_1" xmlns:x="&ns_extend;" xmlns:i="&ns_ai;" xmlns:graph="&ns_graphs;"
	 xmlns="http://www.w3.org/2000/svg" xmlns:xlink="http://www.w3.org/1999/xlink" x="0px" y="0px" viewBox="0 0 74 26"
	 style="enable-background:new 0 0 74 26;" xml:space="preserve">
<style type="text/css">
	.st0{display:none;}
	.st1{display:inline;fill:#FFFFFF;}
	.st2{fill:#FFFFFF;}
</style>
<metadata>
	<sfw  xmlns="&ns_sfw;">
		<slices></slices>
		<sliceSourceBounds  bottomLeftOrigin="true" height="26.09" width="73.318" x="0.341" y="-0.045"></sliceSourceBounds>
	</sfw>
</metadata>
<g class="st0">
	<path class="st1" d="M0.461,18.765c0.053-0.733,0.267-1.42,0.64-2.06c0.374-0.641,0.807-1.187,1.3-1.641
		c0.48-0.453,0.847-0.746,1.1-0.88c0.253-0.133,0.443-0.223,0.57-0.27c0.126-0.046,0.213-0.113,0.26-0.2
		c0.046-0.087,0.11-0.317,0.19-0.69c0.106-0.48,0.24-1.07,0.4-1.77c0.16-0.7,0.336-1.42,0.53-2.16c0.193-0.74,0.4-1.45,0.62-2.13
		c0.22-0.68,0.43-1.233,0.63-1.66c0.053-0.12,0.12-0.263,0.2-0.43c0.08-0.167,0.17-0.327,0.27-0.48c0.1-0.153,0.216-0.283,0.35-0.39
		c0.133-0.106,0.28-0.16,0.44-0.16c0.173,0,0.307,0.1,0.4,0.3c0.093,0.2,0.167,0.437,0.22,0.71c0.053,0.273,0.086,0.554,0.1,0.84
		s0.027,0.523,0.04,0.71l0.1,3.18c-0.013,0.134-0.017,0.347-0.01,0.64c0.006,0.293,0.016,0.6,0.03,0.92
		c0.013,0.32,0.026,0.63,0.04,0.93c0.013,0.3,0.02,0.523,0.02,0.67c0.013,0.267,0.023,0.427,0.03,0.48s0.07,0.093,0.19,0.12
		c0.093,0.027,0.24,0.067,0.44,0.12c0.2,0.053,0.4,0.11,0.6,0.17c0.2,0.06,0.377,0.13,0.53,0.21c0.153,0.08,0.223,0.167,0.21,0.259
		c-0.014,0.147-0.08,0.221-0.2,0.221c-0.173,0-0.42-0.08-0.74-0.24c-0.32-0.16-0.647-0.24-0.98-0.24c0,0.187,0.013,0.393,0.04,0.62
		c0.026,0.227,0.053,0.434,0.08,0.62c0.053,0.627,0.12,1.28,0.2,1.96s0.187,1.36,0.32,2.04s0.293,1.347,0.48,2
		c0.187,0.652,0.407,1.266,0.66,1.84l-0.12,0.119c-0.04,0.027-0.047,0.043-0.02,0.051c0.027,0.006,0,0.01-0.08,0.01
		c-0.147,0-0.244-0.037-0.29-0.109c-0.047-0.074-0.09-0.164-0.13-0.27c-0.04-0.08-0.086-0.191-0.14-0.33
		c-0.054-0.141-0.107-0.291-0.16-0.451s-0.1-0.312-0.14-0.459c-0.04-0.148-0.073-0.268-0.1-0.361c-0.08-0.319-0.19-0.822-0.33-1.509
		c-0.14-0.688-0.273-1.417-0.4-2.19c-0.126-0.773-0.23-1.507-0.31-2.2c-0.08-0.692-0.107-1.2-0.08-1.52
		c-0.16-0.026-0.3-0.05-0.42-0.07c-0.12-0.02-0.273-0.03-0.46-0.03c-0.44,0-0.804,0.017-1.09,0.05s-0.52,0.073-0.7,0.12
		c-0.18,0.047-0.33,0.09-0.45,0.13s-0.24,0.067-0.36,0.08l-0.5,2.439c-0.08,0.28-0.187,0.7-0.32,1.26
		c-0.133,0.561-0.273,1.141-0.42,1.74c-0.147,0.6-0.293,1.167-0.44,1.699c-0.147,0.533-0.273,0.906-0.38,1.121
		c-0.2,0.412-0.454,0.619-0.76,0.619c-0.267,0-0.52-0.143-0.76-0.43c-0.24-0.287-0.434-0.609-0.58-0.971
		c-0.213-0.479-0.337-0.912-0.37-1.299S0.421,19.312,0.461,18.765z M2.201,22.425c0.067-0.107,0.107-0.168,0.12-0.18
		c0.013-0.014,0.053-0.088,0.12-0.221c0.08-0.16,0.187-0.5,0.32-1.02s0.27-1.083,0.41-1.69c0.14-0.606,0.267-1.187,0.38-1.739
		c0.113-0.554,0.197-0.937,0.25-1.15l0.44-2.08c-0.72,0.374-1.363,0.851-1.93,1.43c-0.567,0.58-0.964,1.258-1.19,2.03
		c-0.293,0.907-0.333,1.827-0.12,2.76c0.04,0.16,0.096,0.337,0.17,0.53c0.073,0.193,0.16,0.383,0.26,0.57
		c0.1,0.186,0.217,0.35,0.35,0.49C1.914,22.294,2.054,22.384,2.201,22.425z M6.221,13.205c0.267-0.04,0.483-0.066,0.65-0.08
		c0.167-0.013,0.303-0.02,0.41-0.02c0.2,0,0.353,0.014,0.46,0.04c0.106,0.027,0.313,0.047,0.62,0.06l-0.08-2.22
		c-0.013-0.4-0.023-0.923-0.03-1.57c-0.007-0.646-0.017-1.296-0.03-1.95s-0.04-1.263-0.08-1.83s-0.113-0.97-0.22-1.21
		c-0.107,0.04-0.18,0.093-0.22,0.16c-0.04,0.067-0.093,0.147-0.16,0.24c-0.054,0.093-0.097,0.177-0.13,0.25s-0.07,0.157-0.11,0.25
		c-0.16,0.36-0.32,0.783-0.48,1.27s-0.31,0.99-0.45,1.51c-0.14,0.52-0.273,1.034-0.4,1.54c-0.127,0.507-0.237,0.96-0.33,1.36
		l-0.42,1.78c0,0.093-0.013,0.197-0.04,0.31s-0.047,0.217-0.06,0.31L6.221,13.205z"/>
	<path class="st1" d="M10.921,16.805c0-0.16,0.026-0.387,0.08-0.68c0.053-0.293,0.133-0.58,0.24-0.86
		c0.107-0.279,0.24-0.529,0.4-0.75c0.16-0.22,0.34-0.336,0.54-0.35l0.12,0.14c0.093,0.147,0.103,0.273,0.03,0.38
		c-0.074,0.107-0.184,0.327-0.33,0.66c-0.04,0.094-0.087,0.247-0.14,0.46c-0.053,0.214-0.107,0.434-0.16,0.66s-0.09,0.434-0.11,0.62
		s-0.01,0.3,0.03,0.34c0.013,0.014,0.026,0.021,0.04,0.021c0.067,0,0.153-0.054,0.26-0.16c0.106-0.106,0.22-0.227,0.34-0.36
		c0.12-0.133,0.237-0.267,0.35-0.4c0.113-0.133,0.21-0.22,0.29-0.26c0.093-0.053,0.173-0.08,0.24-0.08c0.16,0,0.277,0.127,0.35,0.38
		c0.073,0.254,0.13,0.534,0.17,0.841c0.04,0.307,0.09,0.586,0.15,0.84c0.06,0.253,0.163,0.38,0.31,0.38
		c0.08,0,0.173-0.047,0.28-0.14c0.106-0.094,0.207-0.204,0.3-0.33c0.093-0.127,0.18-0.254,0.26-0.381
		c0.08-0.126,0.14-0.229,0.18-0.31c0.173-0.347,0.29-0.59,0.35-0.729c0.06-0.141,0.093-0.24,0.1-0.301
		c0.007-0.06-0.003-0.116-0.03-0.17c-0.027-0.053-0.04-0.166-0.04-0.34c0-0.066,0-0.166,0-0.3c0-0.133,0.013-0.264,0.04-0.39
		c0.026-0.127,0.07-0.237,0.13-0.33c0.06-0.094,0.143-0.141,0.25-0.141c0.2,0,0.323,0.05,0.37,0.15c0.046,0.1,0.06,0.229,0.04,0.39
		s-0.04,0.327-0.06,0.5c-0.02,0.174-0.007,0.34,0.04,0.5c0.046,0.16,0.16,0.29,0.34,0.391c0.18,0.1,0.47,0.149,0.87,0.149
		c0.373,0,0.716-0.06,1.03-0.18c0.313-0.12,0.6-0.26,0.86-0.42c0.26-0.16,0.49-0.32,0.69-0.48c0.2-0.16,0.38-0.286,0.54-0.38
		c0.04-0.026,0.1-0.04,0.18-0.04c0.12,0,0.187,0.054,0.2,0.16c0.026,0.12-0.077,0.287-0.31,0.5c-0.233,0.214-0.523,0.424-0.87,0.63
		c-0.347,0.207-0.707,0.39-1.08,0.55c-0.374,0.16-0.693,0.24-0.96,0.24h-0.42c-0.213,0-0.417-0.014-0.61-0.04
		c-0.193-0.026-0.384-0.113-0.57-0.26c-0.093-0.054-0.133-0.083-0.12-0.09c0.013-0.007-0.04-0.011-0.16-0.011
		c-0.04,0.174-0.127,0.384-0.26,0.631c-0.133,0.246-0.29,0.486-0.47,0.72c-0.18,0.233-0.377,0.43-0.59,0.59
		c-0.214,0.16-0.414,0.24-0.6,0.24c-0.213,0-0.384-0.09-0.51-0.271c-0.127-0.18-0.227-0.396-0.3-0.649
		c-0.074-0.254-0.12-0.507-0.14-0.761c-0.02-0.253-0.037-0.46-0.05-0.619c-0.12,0.08-0.237,0.189-0.35,0.33
		c-0.113,0.14-0.233,0.282-0.36,0.43c-0.127,0.146-0.26,0.273-0.4,0.38c-0.14,0.106-0.283,0.16-0.43,0.16
		c-0.16,0-0.28-0.057-0.36-0.17c-0.08-0.113-0.134-0.247-0.16-0.4c-0.027-0.153-0.04-0.31-0.04-0.47S10.921,16.885,10.921,16.805z"
		/>
	<path class="st1" d="M20.561,15.865c0-0.267,0.08-0.533,0.24-0.801c0.16-0.267,0.356-0.506,0.59-0.72
		c0.233-0.213,0.477-0.386,0.73-0.52s0.48-0.2,0.68-0.2c0.333,0,0.5,0.187,0.5,0.56c0,0.134-0.067,0.271-0.2,0.41
		c-0.133,0.141-0.29,0.277-0.47,0.41c-0.18,0.134-0.367,0.25-0.56,0.35c-0.193,0.101-0.343,0.17-0.45,0.21
		c-0.133,0.04-0.237,0.074-0.31,0.101s-0.117,0.113-0.13,0.26c-0.027,0.254,0.066,0.507,0.28,0.76c0.213,0.254,0.473,0.38,0.78,0.38
		s0.63-0.05,0.97-0.149c0.34-0.101,0.676-0.224,1.01-0.37c0.333-0.146,0.653-0.313,0.96-0.5s0.586-0.36,0.84-0.521
		c0.027-0.013,0.09-0.053,0.19-0.119c0.1-0.067,0.196-0.101,0.29-0.101s0.141,0.067,0.141,0.2c0,0.054-0.037,0.117-0.11,0.19
		s-0.16,0.146-0.26,0.22c-0.1,0.073-0.2,0.14-0.3,0.2c-0.1,0.06-0.17,0.104-0.21,0.13c-0.227,0.133-0.49,0.276-0.79,0.43
		s-0.61,0.297-0.93,0.43c-0.32,0.134-0.637,0.247-0.95,0.341c-0.313,0.093-0.597,0.14-0.85,0.14c-0.427,0-0.813-0.16-1.16-0.48
		C20.734,16.785,20.561,16.372,20.561,15.865z M21.581,15.064c0.067,0,0.157-0.026,0.27-0.079c0.113-0.054,0.233-0.124,0.36-0.211
		c0.126-0.086,0.243-0.183,0.35-0.289c0.107-0.107,0.187-0.207,0.24-0.301c-0.187,0.027-0.414,0.137-0.68,0.33
		S21.674,14.892,21.581,15.064z"/>
	<path class="st1" d="M25.44,10.265c0-0.066,0.063-0.137,0.19-0.21c0.127-0.073,0.27-0.14,0.43-0.2c0.16-0.06,0.32-0.113,0.479-0.16
		c0.16-0.047,0.273-0.077,0.34-0.09l1.66-0.42c0.934-0.227,1.934-0.453,3-0.68c1.066-0.227,2.08-0.413,3.041-0.56
		c0.146-0.027,0.23-0.043,0.25-0.05c0.02-0.006,0.057-0.037,0.109-0.09c0.08-0.093,0.221-0.27,0.42-0.53
		c0.201-0.26,0.416-0.53,0.65-0.81c0.232-0.28,0.461-0.53,0.68-0.75c0.221-0.22,0.391-0.33,0.51-0.33c0.133,0,0.221,0.063,0.26,0.19
		c0.041,0.127,0.055,0.273,0.041,0.44c-0.014,0.167-0.037,0.327-0.07,0.48s-0.057,0.257-0.07,0.31
		c-0.027,0.107-0.057,0.247-0.09,0.42s-0.057,0.313-0.07,0.42c0.133-0.013,0.457-0.033,0.971-0.06
		c0.514-0.026,1.082-0.04,1.709-0.04c0.4,0,0.795,0.01,1.182,0.03s0.736,0.053,1.049,0.1c0.314,0.047,0.566,0.113,0.76,0.2
		c0.193,0.087,0.291,0.197,0.291,0.33c0,0.187-0.031,0.317-0.09,0.39c-0.061,0.073-0.123,0.11-0.191,0.11
		c-0.133,0-0.199-0.06-0.199-0.18c0-0.013,0.01-0.036,0.029-0.07c0.021-0.033,0.014-0.07-0.02-0.11s-0.104-0.077-0.209-0.11
		c-0.107-0.033-0.287-0.057-0.541-0.07c-0.213-0.013-0.402-0.02-0.57-0.02c-0.166,0-0.322,0-0.469,0c-0.307,0-0.584,0.003-0.83,0.01
		c-0.248,0.007-0.545,0.01-0.891,0.01h-0.459c-0.295,0-0.578,0.017-0.852,0.05c-0.273,0.033-0.543,0.063-0.809,0.09
		c-0.121,0.493-0.244,1.06-0.371,1.7c-0.127,0.64-0.256,1.297-0.391,1.97c-0.133,0.673-0.256,1.337-0.369,1.99
		c-0.113,0.653-0.209,1.233-0.289,1.74c-0.055,0.333-0.104,0.663-0.15,0.99c-0.047,0.326-0.084,0.649-0.111,0.97l-0.119,0.96
		l-0.34,3.54c0,0.227-0.004,0.402-0.01,0.529c-0.008,0.127-0.018,0.25-0.031,0.371c-0.012,0.119-0.02,0.256-0.02,0.41
		c0,0.152,0.02,0.355,0.061,0.609c-0.041,0.025-0.074,0.057-0.1,0.09c-0.027,0.033-0.055,0.051-0.08,0.051
		c-0.027,0-0.061-0.021-0.1-0.061c-0.107-0.066-0.174-0.236-0.201-0.51s-0.039-0.477-0.039-0.611l0.219-3.919
		c0-0.147,0.018-0.394,0.051-0.74s0.07-0.713,0.109-1.1c0.041-0.387,0.084-0.761,0.131-1.12c0.047-0.36,0.076-0.627,0.09-0.8
		c0.039-0.307,0.08-0.617,0.119-0.931c0.041-0.312,0.074-0.623,0.102-0.93c0.025-0.16,0.082-0.49,0.17-0.99
		c0.086-0.5,0.182-1.037,0.289-1.61s0.217-1.104,0.33-1.59c0.113-0.486,0.203-0.796,0.27-0.93c-0.16,0-0.332,0.013-0.52,0.04
		s-0.354,0.053-0.5,0.08c-0.119,0.027-0.197,0.043-0.23,0.05s-0.082,0.05-0.15,0.13l-3.58,4.9c-0.318,0.439-0.625,0.887-0.92,1.34
		c-0.293,0.453-0.592,0.907-0.898,1.36c-0.215,0.307-0.363,0.529-0.451,0.67c-0.086,0.14-0.139,0.247-0.16,0.319
		c-0.02,0.073-0.014,0.137,0.021,0.19c0.033,0.053,0.068,0.146,0.109,0.28c0.16,0.573,0.189,1.093,0.09,1.56
		s-0.283,0.946-0.551,1.44c-0.227,0.387-0.469,0.689-0.729,0.91c-0.262,0.219-0.498,0.33-0.711,0.33c-0.16,0-0.293-0.068-0.4-0.201
		c-0.106-0.133-0.16-0.354-0.16-0.66c0-0.146,0.027-0.336,0.08-0.569c0.054-0.233,0.094-0.41,0.121-0.53
		c0.16-0.507,0.346-0.953,0.559-1.34c0.215-0.387,0.434-0.807,0.66-1.26c-0.092-0.174-0.232-0.326-0.42-0.46
		c-0.186-0.133-0.379-0.25-0.58-0.35c-0.199-0.101-0.387-0.19-0.559-0.271c-0.174-0.08-0.301-0.153-0.38-0.22
		c-0.2-0.187-0.307-0.406-0.32-0.66c-0.013-0.253,0.03-0.493,0.13-0.72c0.1-0.227,0.243-0.424,0.43-0.59
		c0.187-0.167,0.387-0.25,0.6-0.25c0.188,0,0.34,0.053,0.461,0.159c0.133,0.094,0.205,0.214,0.219,0.36s-0.002,0.297-0.049,0.45
		s-0.107,0.3-0.18,0.439c-0.074,0.141-0.145,0.25-0.211,0.33c0.254,0.134,0.494,0.287,0.721,0.46l0.619,0.54L32,11.605l1.84-2.42
		c0.053-0.066,0.119-0.146,0.199-0.24s0.135-0.18,0.16-0.26c-0.119,0-0.387,0.037-0.799,0.11c-0.414,0.074-0.857,0.16-1.33,0.26
		c-0.475,0.1-0.924,0.197-1.35,0.29c-0.428,0.093-0.707,0.16-0.842,0.2l-3.159,0.74l-0.54,0.1c-0.067,0.027-0.15,0.05-0.25,0.07
		s-0.183,0.03-0.25,0.03C25.521,10.485,25.44,10.412,25.44,10.265z M26.661,15.385c0.066-0.026,0.116-0.063,0.15-0.11
		c0.033-0.046,0.062-0.116,0.09-0.21c0.025-0.053,0.053-0.123,0.08-0.21c0.025-0.086,0.025-0.149,0-0.189
		c0-0.026-0.014-0.04-0.041-0.04c-0.066,0-0.143,0.07-0.229,0.21S26.607,15.158,26.661,15.385z M27.141,21.485
		c0.186-0.055,0.361-0.201,0.529-0.44c0.166-0.24,0.297-0.434,0.391-0.58c0.16-0.267,0.266-0.514,0.318-0.74
		c0.055-0.227,0.08-0.437,0.08-0.63s-0.016-0.367-0.049-0.52c-0.033-0.153-0.051-0.29-0.051-0.41h-0.08
		c-0.027,0.12-0.08,0.246-0.16,0.38c-0.08,0.133-0.152,0.26-0.219,0.38c-0.068,0.133-0.127,0.264-0.18,0.39
		c-0.055,0.127-0.115,0.25-0.182,0.37c-0.133,0.293-0.24,0.59-0.318,0.891C27.141,20.875,27.114,21.178,27.141,21.485z M35.62,7.785
		c0.16,0,0.305-0.013,0.43-0.04c0.127-0.026,0.258-0.046,0.391-0.06l0.32-1.3c-0.039,0.027-0.117,0.107-0.23,0.24
		c-0.113,0.134-0.232,0.277-0.359,0.43s-0.244,0.303-0.35,0.45C35.713,7.652,35.647,7.745,35.62,7.785z"/>
	<path class="st1" d="M37.02,16.725c0-0.227,0.05-0.482,0.15-0.77c0.1-0.287,0.216-0.563,0.35-0.83c0.133-0.267,0.27-0.49,0.41-0.67
		c0.14-0.181,0.256-0.271,0.35-0.271c0.066,0,0.133,0.007,0.2,0.021c0.066,0.014,0.1,0.073,0.1,0.18c0,0.08-0.063,0.217-0.189,0.41
		c-0.127,0.193-0.257,0.427-0.391,0.7c-0.133,0.273-0.246,0.573-0.34,0.899c-0.093,0.327-0.1,0.664-0.02,1.011
		c0.2-0.054,0.376-0.19,0.531-0.41c0.152-0.221,0.256-0.443,0.31-0.67c0.013-0.066,0.017-0.153,0.01-0.261
		c-0.007-0.106-0.007-0.213,0-0.319s0.023-0.197,0.05-0.271c0.027-0.073,0.087-0.109,0.181-0.109c0.106,0,0.253,0.066,0.439,0.199
		c0.387,0.254,0.807,0.381,1.261,0.381c0.253,0,0.496-0.03,0.729-0.091c0.233-0.06,0.443-0.126,0.63-0.199s0.354-0.141,0.5-0.2
		c0.146-0.061,0.253-0.09,0.32-0.09c0.053,0,0.106,0.023,0.16,0.069c0.053,0.047,0.062,0.11,0.029,0.19s-0.119,0.173-0.26,0.28
		c-0.14,0.106-0.37,0.213-0.689,0.319c-0.228,0.067-0.443,0.127-0.65,0.181c-0.207,0.053-0.45,0.08-0.73,0.08
		c-0.253,0-0.453-0.014-0.6-0.04c-0.146-0.027-0.267-0.061-0.36-0.101c-0.093-0.04-0.173-0.08-0.239-0.12
		c-0.067-0.04-0.153-0.066-0.261-0.08c0,0.228-0.043,0.45-0.13,0.67c-0.087,0.221-0.196,0.414-0.33,0.58
		c-0.133,0.167-0.283,0.301-0.449,0.4c-0.167,0.1-0.325,0.15-0.471,0.15s-0.26-0.044-0.34-0.131s-0.14-0.193-0.18-0.319
		c-0.04-0.127-0.063-0.26-0.07-0.4C37.023,16.955,37.02,16.832,37.02,16.725z"/>
	<path class="st1" d="M43.221,15.785c0.026-0.026,0.036-0.037,0.03-0.03c-0.007,0.007,0.003-0.01,0.029-0.05l0.62-1.021
		c0.106-0.133,0.247-0.31,0.42-0.529c0.174-0.22,0.347-0.33,0.521-0.33c0.133,0,0.227,0.073,0.279,0.22
		c0.054,0.146,0.084,0.323,0.091,0.53c0.006,0.207,0.003,0.417-0.011,0.63c-0.013,0.213-0.02,0.394-0.02,0.54l0.16-0.221
		c0.279-0.492,0.517-0.833,0.71-1.02s0.356-0.28,0.49-0.28c0.106,0,0.199,0.05,0.279,0.15c0.08,0.1,0.15,0.217,0.21,0.35
		c0.061,0.134,0.12,0.273,0.181,0.42c0.06,0.147,0.123,0.261,0.189,0.341c0.187,0.227,0.396,0.393,0.63,0.5
		c0.233,0.106,0.483,0.159,0.75,0.159c0.4,0,0.813-0.106,1.24-0.319c0.106-0.04,0.19-0.08,0.25-0.12
		c0.061-0.04,0.13-0.094,0.21-0.16c0.026-0.013,0.093-0.057,0.2-0.13c0.106-0.073,0.206-0.11,0.3-0.11
		c0.093,0,0.14,0.061,0.14,0.181c0,0.093-0.069,0.206-0.21,0.34c-0.14,0.133-0.323,0.26-0.55,0.38s-0.483,0.224-0.77,0.31
		c-0.287,0.087-0.584,0.13-0.891,0.13c-0.267,0-0.529-0.043-0.79-0.13c-0.26-0.086-0.496-0.236-0.71-0.45
		c-0.146-0.159-0.29-0.369-0.43-0.63c-0.14-0.26-0.224-0.496-0.25-0.71c-0.08,0.04-0.146,0.087-0.2,0.141
		c-0.053,0.053-0.113,0.133-0.18,0.239c-0.12,0.147-0.22,0.29-0.3,0.431c-0.08,0.14-0.174,0.29-0.28,0.45
		c-0.04,0.066-0.094,0.14-0.16,0.22s-0.14,0.12-0.22,0.12c-0.146,0-0.254-0.066-0.32-0.2c-0.066-0.133-0.109-0.297-0.13-0.49
		c-0.02-0.193-0.023-0.403-0.01-0.63c0.013-0.227,0.02-0.44,0.02-0.64c-0.053,0.026-0.076,0.04-0.069,0.04
		c0.006,0-0.011,0.013-0.051,0.04l-0.479,0.659c-0.094,0.134-0.187,0.297-0.28,0.49c-0.093,0.193-0.184,0.377-0.27,0.55
		c-0.087,0.174-0.164,0.327-0.23,0.46c-0.066,0.134-0.113,0.214-0.14,0.24c-0.094,0.12-0.193,0.18-0.3,0.18
		c-0.214,0-0.32-0.159-0.32-0.479c0-0.146,0.013-0.343,0.04-0.59c0.026-0.247,0.066-0.497,0.12-0.75c0.053-0.253,0.12-0.47,0.2-0.65
		c0.08-0.18,0.166-0.27,0.26-0.27c0.146,0,0.229,0.036,0.25,0.109c0.02,0.074,0.01,0.177-0.03,0.311
		c-0.04,0.133-0.087,0.293-0.14,0.479C43.247,15.372,43.221,15.571,43.221,15.785z"/>
	<path class="st1" d="M52.121,14.585c0.026-0.053,0.069-0.123,0.13-0.21c0.06-0.087,0.13-0.13,0.21-0.13
		c0.146,0,0.229,0.033,0.25,0.1c0.02,0.067,0.01,0.174-0.03,0.32s-0.087,0.34-0.14,0.58c-0.054,0.24-0.08,0.54-0.08,0.899
		c0,0.36,0.13,0.664,0.39,0.91c0.26,0.247,0.563,0.37,0.91,0.37c0.427,0,0.837-0.094,1.229-0.28c0.394-0.187,0.73-0.38,1.011-0.58
		l1.42-1.1c0.106-0.106,0.206-0.16,0.3-0.16c0.066,0,0.113,0.023,0.14,0.07c0.027,0.047,0.04,0.09,0.04,0.13
		c0,0.12-0.076,0.257-0.229,0.41s-0.33,0.307-0.53,0.46s-0.394,0.293-0.58,0.42s-0.313,0.21-0.38,0.25
		c-0.347,0.227-0.733,0.433-1.16,0.62c-0.427,0.187-0.854,0.28-1.28,0.28c-0.56,0-1.003-0.167-1.329-0.5
		c-0.327-0.334-0.523-0.767-0.591-1.301c-0.04,0.027-0.093,0.098-0.159,0.21c-0.067,0.114-0.15,0.23-0.25,0.351
		c-0.101,0.12-0.211,0.229-0.33,0.33c-0.12,0.1-0.247,0.149-0.381,0.149c-0.079,0-0.159-0.02-0.239-0.06
		c-0.16-0.08-0.25-0.227-0.271-0.44c-0.02-0.213,0.01-0.442,0.09-0.689s0.2-0.486,0.36-0.721c0.16-0.232,0.333-0.416,0.521-0.55
		c0.253-0.173,0.453-0.26,0.6-0.26C51.881,14.465,52.001,14.505,52.121,14.585z M50.7,16.725c0.12-0.066,0.237-0.17,0.351-0.31
		c0.113-0.141,0.223-0.297,0.33-0.47c0.106-0.174,0.206-0.347,0.3-0.521c0.093-0.173,0.173-0.32,0.24-0.439
		c-0.107,0-0.2,0.026-0.28,0.079c-0.08,0.054-0.153,0.114-0.22,0.181c-0.08,0.053-0.144,0.113-0.19,0.18
		c-0.047,0.067-0.104,0.14-0.17,0.22c-0.106,0.147-0.193,0.301-0.26,0.46C50.733,16.265,50.7,16.472,50.7,16.725z"/>
	<path class="st1" d="M51.78,11.345c0-0.106-0.014-0.187-0.04-0.24c-0.026-0.053,0.026-0.14,0.16-0.26
		c0.199-0.187,0.569-0.38,1.109-0.58s1.12-0.393,1.74-0.58c0.62-0.187,1.217-0.353,1.79-0.5c0.573-0.146,1-0.253,1.28-0.32
		c0.106-0.027,0.21-0.05,0.31-0.07c0.101-0.02,0.196-0.043,0.29-0.07c0.16-0.013,0.257-0.026,0.29-0.04
		c0.033-0.013,0.07-0.093,0.11-0.24c0.066-0.16,0.14-0.337,0.22-0.53c0.08-0.193,0.213-0.29,0.4-0.29c0.146,0,0.232,0.037,0.26,0.11
		c0.026,0.073,0.03,0.16,0.01,0.26c-0.02,0.1-0.05,0.197-0.09,0.29s-0.06,0.167-0.06,0.22c0.119,0,0.25-0.013,0.39-0.04
		s0.283-0.047,0.43-0.06c0.307-0.053,0.587-0.097,0.84-0.13c0.254-0.033,0.504-0.056,0.75-0.07c0.247-0.013,0.5-0.023,0.761-0.03
		c0.26-0.007,0.55-0.01,0.869-0.01c0.4,0,0.717,0.07,0.95,0.21c0.233,0.14,0.391,0.297,0.471,0.47c0.079,0.173,0.093,0.33,0.04,0.47
		c-0.054,0.14-0.167,0.21-0.341,0.21c-0.053,0-0.1-0.006-0.14-0.02c0-0.213-0.004-0.35-0.01-0.41
		c-0.007-0.06-0.097-0.123-0.271-0.19c-0.253-0.08-0.606-0.12-1.06-0.12c-0.307,0-0.634,0.013-0.98,0.04s-0.684,0.06-1.01,0.1
		c-0.327,0.04-0.623,0.08-0.89,0.12c-0.268,0.04-0.474,0.074-0.62,0.1c-0.12,0.014-0.207,0.027-0.26,0.04
		c-0.054,0.014-0.091,0.03-0.11,0.05c-0.021,0.02-0.037,0.057-0.05,0.11c-0.014,0.053-0.033,0.133-0.061,0.24l-0.479,2.32
		c-0.107,0.427-0.228,0.993-0.36,1.7s-0.25,1.437-0.35,2.19c-0.101,0.753-0.164,1.467-0.19,2.14
		c-0.026,0.674,0.007,1.184,0.101,1.53c0.053,0.187,0.103,0.316,0.149,0.39s0.087,0.127,0.12,0.16s0.061,0.061,0.08,0.08
		c0.02,0.021,0.03,0.057,0.03,0.11c0,0.146-0.073,0.22-0.221,0.22c-0.159,0-0.347-0.153-0.56-0.46
		c-0.214-0.307-0.32-0.833-0.32-1.58c0-1.173,0.077-2.353,0.23-3.54c0.153-1.186,0.356-2.346,0.609-3.479l0.421-1.98
		c-0.12,0-0.344,0.04-0.671,0.12c-0.326,0.08-0.673,0.167-1.039,0.26c-0.367,0.093-0.714,0.187-1.04,0.28
		c-0.327,0.094-0.557,0.154-0.69,0.18l-2.38,0.8c-0.307,0.134-0.477,0.227-0.51,0.28s-0.083,0.08-0.15,0.08
		c-0.026,0-0.06-0.003-0.1-0.01C51.9,11.369,51.847,11.358,51.78,11.345z"/>
	<path class="st1" d="M59.34,15.865c0-0.267,0.08-0.533,0.24-0.801c0.16-0.267,0.356-0.506,0.59-0.72
		c0.233-0.213,0.477-0.386,0.73-0.52c0.253-0.133,0.479-0.2,0.68-0.2c0.333,0,0.5,0.187,0.5,0.56c0,0.134-0.067,0.271-0.2,0.41
		c-0.133,0.141-0.29,0.277-0.47,0.41c-0.18,0.134-0.367,0.25-0.561,0.35c-0.193,0.101-0.343,0.17-0.449,0.21
		c-0.134,0.04-0.237,0.074-0.311,0.101s-0.116,0.113-0.13,0.26c-0.026,0.254,0.066,0.507,0.28,0.76
		c0.213,0.254,0.473,0.38,0.78,0.38c0.306,0,0.63-0.05,0.97-0.149c0.34-0.101,0.677-0.224,1.01-0.37s0.653-0.313,0.96-0.5
		s0.587-0.36,0.84-0.521c0.026-0.013,0.09-0.053,0.19-0.119c0.1-0.067,0.196-0.101,0.29-0.101c0.093,0,0.14,0.067,0.14,0.2
		c0,0.054-0.037,0.117-0.11,0.19s-0.159,0.146-0.26,0.22c-0.1,0.073-0.2,0.14-0.3,0.2c-0.1,0.06-0.17,0.104-0.21,0.13
		c-0.227,0.133-0.49,0.276-0.79,0.43s-0.61,0.297-0.93,0.43c-0.32,0.134-0.637,0.247-0.95,0.341c-0.313,0.093-0.597,0.14-0.85,0.14
		c-0.428,0-0.813-0.16-1.16-0.48C59.513,16.785,59.34,16.372,59.34,15.865z M60.36,15.064c0.066,0,0.156-0.026,0.27-0.079
		c0.113-0.054,0.233-0.124,0.36-0.211c0.126-0.086,0.243-0.183,0.35-0.289c0.106-0.107,0.187-0.207,0.24-0.301
		c-0.187,0.027-0.413,0.137-0.68,0.33C60.633,14.708,60.453,14.892,60.36,15.064z"/>
	<path class="st1" d="M64.699,15.064c0-0.239,0.094-0.47,0.28-0.689s0.406-0.33,0.66-0.33c0.146,0,0.263,0.04,0.35,0.12
		s0.13,0.187,0.13,0.32c0,0.133-0.05,0.283-0.149,0.449c-0.101,0.167-0.277,0.33-0.53,0.49c0.054,0.187,0.173,0.354,0.36,0.5
		c0.187,0.146,0.333,0.273,0.439,0.38c0.12,0.16,0.243,0.32,0.37,0.48s0.21,0.347,0.25,0.56c0.106,0,0.22-0.02,0.34-0.06
		s0.227-0.073,0.32-0.101c0.427-0.12,0.877-0.3,1.35-0.54c0.474-0.239,0.877-0.493,1.21-0.76c0.027-0.026,0.077-0.07,0.15-0.13
		s0.153-0.127,0.24-0.2c0.086-0.073,0.18-0.137,0.28-0.189c0.1-0.054,0.183-0.08,0.25-0.08c0.093,0,0.14,0.066,0.14,0.2
		c0,0.119-0.107,0.263-0.32,0.43s-0.38,0.304-0.5,0.41c-0.359,0.293-0.713,0.526-1.06,0.699c-0.347,0.174-0.667,0.313-0.96,0.421
		c-0.294,0.106-0.557,0.189-0.79,0.25c-0.233,0.06-0.417,0.123-0.55,0.189c0,0.521-0.17,0.993-0.511,1.42
		c-0.34,0.427-0.703,0.747-1.09,0.96c-0.227,0.106-0.417,0.174-0.569,0.2c-0.154,0.026-0.323,0.04-0.511,0.04H63.92
		c-0.174,0-0.341-0.066-0.5-0.2c-0.16-0.133-0.25-0.307-0.271-0.52c-0.02-0.214,0.057-0.454,0.23-0.721
		c0.173-0.267,0.513-0.533,1.02-0.8c0.24-0.133,0.543-0.283,0.91-0.45c0.366-0.166,0.684-0.257,0.95-0.27
		c-0.014-0.134-0.057-0.25-0.13-0.35c-0.074-0.101-0.144-0.197-0.21-0.29c-0.054-0.027-0.094-0.061-0.12-0.101
		c-0.027-0.04-0.061-0.086-0.101-0.14c-0.279-0.24-0.517-0.46-0.71-0.66S64.699,15.492,64.699,15.064z M64.199,20.024
		c0.254,0,0.507-0.062,0.761-0.189c0.253-0.127,0.482-0.287,0.689-0.48s0.373-0.409,0.5-0.649s0.19-0.474,0.19-0.7
		c-0.268,0.066-0.537,0.156-0.811,0.27s-0.529,0.23-0.77,0.351c-0.227,0.12-0.44,0.26-0.641,0.42c-0.199,0.16-0.343,0.313-0.43,0.46
		s-0.097,0.27-0.03,0.37C63.727,19.975,63.906,20.024,64.199,20.024z M65.38,14.905c0.093-0.067,0.146-0.11,0.16-0.131
		c0.013-0.02,0.046-0.076,0.1-0.17c-0.107,0.027-0.17,0.058-0.19,0.091C65.43,14.729,65.406,14.798,65.38,14.905z"/>
	<path class="st1" d="M71.68,17.085c-0.174,0-0.294-0.047-0.36-0.14c-0.067-0.094-0.094-0.2-0.08-0.32
		c0.013-0.12,0.057-0.227,0.13-0.32c0.073-0.093,0.156-0.14,0.25-0.14h0.061c0.053,0,0.1,0.01,0.14,0.03
		c0.04,0.02,0.113,0.076,0.22,0.17c0.174,0.173,0.203,0.337,0.09,0.489C72.016,17.009,71.866,17.085,71.68,17.085z"/>
</g>
<g>
	<path class="st2" d="M0.461,18.765c0.053-0.733,0.267-1.42,0.64-2.06c0.374-0.641,0.807-1.187,1.3-1.641
		c0.48-0.453,0.847-0.746,1.1-0.88c0.253-0.133,0.443-0.223,0.57-0.27c0.126-0.046,0.213-0.113,0.26-0.2
		c0.046-0.087,0.11-0.317,0.19-0.69c0.106-0.48,0.24-1.07,0.4-1.77c0.16-0.7,0.336-1.42,0.53-2.16c0.193-0.74,0.4-1.45,0.62-2.13
		c0.22-0.68,0.43-1.233,0.63-1.66c0.053-0.12,0.12-0.263,0.2-0.43c0.08-0.167,0.17-0.327,0.27-0.48c0.1-0.153,0.216-0.283,0.35-0.39
		c0.133-0.106,0.28-0.16,0.44-0.16c0.173,0,0.307,0.1,0.4,0.3c0.093,0.2,0.167,0.437,0.22,0.71c0.053,0.273,0.086,0.554,0.1,0.84
		s0.027,0.523,0.04,0.71l0.1,3.18c-0.013,0.134-0.017,0.347-0.01,0.64c0.006,0.293,0.016,0.6,0.03,0.92
		c0.013,0.32,0.026,0.63,0.04,0.93c0.013,0.3,0.02,0.523,0.02,0.67c0.013,0.267,0.023,0.427,0.03,0.48s0.07,0.093,0.19,0.12
		c0.093,0.027,0.24,0.067,0.44,0.12c0.2,0.053,0.4,0.11,0.6,0.17c0.2,0.06,0.377,0.13,0.53,0.21c0.153,0.08,0.223,0.167,0.21,0.259
		c-0.014,0.147-0.08,0.221-0.2,0.221c-0.173,0-0.42-0.08-0.74-0.24c-0.32-0.16-0.647-0.24-0.98-0.24c0,0.187,0.013,0.393,0.04,0.62
		c0.026,0.227,0.053,0.434,0.08,0.62c0.053,0.627,0.12,1.28,0.2,1.96s0.187,1.36,0.32,2.04s0.293,1.347,0.48,2
		c0.187,0.652,0.407,1.266,0.66,1.84l-0.12,0.119c-0.04,0.027-0.047,0.043-0.02,0.051c0.027,0.006,0,0.01-0.08,0.01
		c-0.147,0-0.244-0.037-0.29-0.109c-0.047-0.074-0.09-0.164-0.13-0.27c-0.04-0.08-0.086-0.191-0.14-0.33
		c-0.054-0.141-0.107-0.291-0.16-0.451s-0.1-0.312-0.14-0.459c-0.04-0.148-0.073-0.268-0.1-0.361c-0.08-0.319-0.19-0.822-0.33-1.509
		c-0.14-0.688-0.273-1.417-0.4-2.19c-0.126-0.773-0.23-1.507-0.31-2.2c-0.08-0.692-0.107-1.2-0.08-1.52
		c-0.16-0.026-0.3-0.05-0.42-0.07c-0.12-0.02-0.273-0.03-0.46-0.03c-0.44,0-0.804,0.017-1.09,0.05s-0.52,0.073-0.7,0.12
		c-0.18,0.047-0.33,0.09-0.45,0.13s-0.24,0.067-0.36,0.08l-0.5,2.439c-0.08,0.28-0.187,0.7-0.32,1.26
		c-0.133,0.561-0.273,1.141-0.42,1.74c-0.147,0.6-0.293,1.167-0.44,1.699c-0.147,0.533-0.273,0.906-0.38,1.121
		c-0.2,0.412-0.454,0.619-0.76,0.619c-0.267,0-0.52-0.143-0.76-0.43c-0.24-0.287-0.434-0.609-0.58-0.971
		c-0.213-0.479-0.337-0.912-0.37-1.299S0.421,19.312,0.461,18.765z M2.201,22.425c0.067-0.107,0.107-0.168,0.12-0.18
		c0.013-0.014,0.053-0.088,0.12-0.221c0.08-0.16,0.187-0.5,0.32-1.02s0.27-1.083,0.41-1.69c0.14-0.606,0.267-1.187,0.38-1.739
		c0.113-0.554,0.197-0.937,0.25-1.15l0.44-2.08c-0.72,0.374-1.363,0.851-1.93,1.43c-0.567,0.58-0.964,1.258-1.19,2.03
		c-0.293,0.907-0.333,1.827-0.12,2.76c0.04,0.16,0.096,0.337,0.17,0.53c0.073,0.193,0.16,0.383,0.26,0.57
		c0.1,0.186,0.217,0.35,0.35,0.49C1.914,22.294,2.054,22.384,2.201,22.425z M6.221,13.205c0.267-0.04,0.483-0.066,0.65-0.08
		c0.167-0.013,0.303-0.02,0.41-0.02c0.2,0,0.353,0.014,0.46,0.04c0.106,0.027,0.313,0.047,0.62,0.06l-0.08-2.22
		c-0.013-0.4-0.023-0.923-0.03-1.57c-0.007-0.646-0.017-1.296-0.03-1.95s-0.04-1.263-0.08-1.83s-0.113-0.97-0.22-1.21
		c-0.107,0.04-0.18,0.093-0.22,0.16c-0.04,0.067-0.093,0.147-0.16,0.24c-0.054,0.093-0.097,0.177-0.13,0.25s-0.07,0.157-0.11,0.25
		c-0.16,0.36-0.32,0.783-0.48,1.27s-0.31,0.99-0.45,1.51c-0.14,0.52-0.273,1.034-0.4,1.54c-0.127,0.507-0.237,0.96-0.33,1.36
		l-0.42,1.78c0,0.093-0.013,0.197-0.04,0.31s-0.047,0.217-0.06,0.31L6.221,13.205z"/>
	<path class="st2" d="M10.921,16.805c0-0.16,0.026-0.387,0.08-0.68c0.053-0.293,0.133-0.58,0.24-0.86
		c0.107-0.279,0.24-0.529,0.4-0.75c0.16-0.22,0.34-0.336,0.54-0.35l0.12,0.14c0.093,0.147,0.103,0.273,0.03,0.38
		c-0.074,0.107-0.184,0.327-0.33,0.66c-0.04,0.094-0.087,0.247-0.14,0.46c-0.053,0.214-0.107,0.434-0.16,0.66s-0.09,0.434-0.11,0.62
		s-0.01,0.3,0.03,0.34c0.013,0.014,0.026,0.021,0.04,0.021c0.067,0,0.153-0.054,0.26-0.16c0.106-0.106,0.22-0.227,0.34-0.36
		c0.12-0.133,0.237-0.267,0.35-0.4c0.113-0.133,0.21-0.22,0.29-0.26c0.093-0.053,0.173-0.08,0.24-0.08c0.16,0,0.277,0.127,0.35,0.38
		c0.073,0.254,0.13,0.534,0.17,0.841c0.04,0.307,0.09,0.586,0.15,0.84c0.06,0.253,0.163,0.38,0.31,0.38
		c0.08,0,0.173-0.047,0.28-0.14c0.106-0.094,0.207-0.204,0.3-0.33c0.093-0.127,0.18-0.254,0.26-0.381
		c0.08-0.126,0.14-0.229,0.18-0.31c0.173-0.347,0.29-0.59,0.35-0.729c0.06-0.141,0.093-0.24,0.1-0.301
		c0.007-0.06-0.003-0.116-0.03-0.17c-0.027-0.053-0.04-0.166-0.04-0.34c0-0.066,0-0.166,0-0.3c0-0.133,0.013-0.264,0.04-0.39
		c0.026-0.127,0.07-0.237,0.13-0.33c0.06-0.094,0.143-0.141,0.25-0.141c0.2,0,0.323,0.05,0.37,0.15c0.046,0.1,0.06,0.229,0.04,0.39
		s-0.04,0.327-0.06,0.5c-0.02,0.174-0.007,0.34,0.04,0.5c0.046,0.16,0.16,0.29,0.34,0.391c0.18,0.1,0.47,0.149,0.87,0.149
		c0.373,0,0.716-0.06,1.03-0.18c0.313-0.12,0.6-0.26,0.86-0.42c0.26-0.16,0.49-0.32,0.69-0.48c0.2-0.16,0.38-0.286,0.54-0.38
		c0.04-0.026,0.1-0.04,0.18-0.04c0.12,0,0.187,0.054,0.2,0.16c0.026,0.12-0.077,0.287-0.31,0.5c-0.233,0.214-0.523,0.424-0.87,0.63
		c-0.347,0.207-0.707,0.39-1.08,0.55c-0.374,0.16-0.693,0.24-0.96,0.24h-0.42c-0.213,0-0.417-0.014-0.61-0.04
		c-0.193-0.026-0.384-0.113-0.57-0.26c-0.093-0.054-0.133-0.083-0.12-0.09c0.013-0.007-0.04-0.011-0.16-0.011
		c-0.04,0.174-0.127,0.384-0.26,0.631c-0.133,0.246-0.29,0.486-0.47,0.72c-0.18,0.233-0.377,0.43-0.59,0.59
		c-0.214,0.16-0.414,0.24-0.6,0.24c-0.213,0-0.384-0.09-0.51-0.271c-0.127-0.18-0.227-0.396-0.3-0.649
		c-0.074-0.254-0.12-0.507-0.14-0.761c-0.02-0.253-0.037-0.46-0.05-0.619c-0.12,0.08-0.237,0.189-0.35,0.33
		c-0.113,0.14-0.233,0.282-0.36,0.43c-0.127,0.146-0.26,0.273-0.4,0.38c-0.14,0.106-0.283,0.16-0.43,0.16
		c-0.16,0-0.28-0.057-0.36-0.17c-0.08-0.113-0.134-0.247-0.16-0.4c-0.027-0.153-0.04-0.31-0.04-0.47S10.921,16.885,10.921,16.805z"
		/>
	<path class="st2" d="M20.561,15.865c0-0.267,0.08-0.533,0.24-0.801c0.16-0.267,0.356-0.506,0.59-0.72
		c0.233-0.213,0.477-0.386,0.73-0.52s0.48-0.2,0.68-0.2c0.333,0,0.5,0.187,0.5,0.56c0,0.134-0.067,0.271-0.2,0.41
		c-0.133,0.141-0.29,0.277-0.47,0.41c-0.18,0.134-0.367,0.25-0.56,0.35c-0.193,0.101-0.343,0.17-0.45,0.21
		c-0.133,0.04-0.237,0.074-0.31,0.101s-0.117,0.113-0.13,0.26c-0.027,0.254,0.066,0.507,0.28,0.76c0.213,0.254,0.473,0.38,0.78,0.38
		s0.63-0.05,0.97-0.149c0.34-0.101,0.676-0.224,1.01-0.37c0.333-0.146,0.653-0.313,0.96-0.5s0.586-0.36,0.84-0.521
		c0.027-0.013,0.09-0.053,0.19-0.119c0.1-0.067,0.196-0.101,0.29-0.101s0.141,0.067,0.141,0.2c0,0.054-0.037,0.117-0.11,0.19
		s-0.16,0.146-0.26,0.22c-0.1,0.073-0.2,0.14-0.3,0.2c-0.1,0.06-0.17,0.104-0.21,0.13c-0.227,0.133-0.49,0.276-0.79,0.43
		s-0.61,0.297-0.93,0.43c-0.32,0.134-0.637,0.247-0.95,0.341c-0.313,0.093-0.597,0.14-0.85,0.14c-0.427,0-0.813-0.16-1.16-0.48
		C20.734,16.785,20.561,16.372,20.561,15.865z M21.581,15.064c0.067,0,0.157-0.026,0.27-0.079c0.113-0.054,0.233-0.124,0.36-0.211
		c0.126-0.086,0.243-0.183,0.35-0.289c0.107-0.107,0.187-0.207,0.24-0.301c-0.187,0.027-0.414,0.137-0.68,0.33
		S21.674,14.892,21.581,15.064z"/>
	<path class="st2" d="M25.44,10.265c0-0.066,0.063-0.137,0.19-0.21c0.127-0.073,0.27-0.14,0.43-0.2c0.16-0.06,0.32-0.113,0.479-0.16
		c0.16-0.047,0.273-0.077,0.34-0.09l1.66-0.42c0.934-0.227,1.934-0.453,3-0.68c1.066-0.227,2.08-0.413,3.041-0.56
		c0.146-0.027,0.23-0.043,0.25-0.05c0.02-0.006,0.057-0.037,0.109-0.09c0.08-0.093,0.221-0.27,0.42-0.53
		c0.201-0.26,0.416-0.53,0.65-0.81c0.232-0.28,0.461-0.53,0.68-0.75c0.221-0.22,0.391-0.33,0.51-0.33c0.133,0,0.221,0.063,0.26,0.19
		c0.041,0.127,0.055,0.273,0.041,0.44c-0.014,0.167-0.037,0.327-0.07,0.48s-0.057,0.257-0.07,0.31
		c-0.027,0.107-0.057,0.247-0.09,0.42s-0.057,0.313-0.07,0.42c0.133-0.013,0.457-0.033,0.971-0.06
		c0.514-0.026,1.082-0.04,1.709-0.04c0.4,0,0.795,0.01,1.182,0.03s0.736,0.053,1.049,0.1c0.314,0.047,0.566,0.113,0.76,0.2
		c0.193,0.087,0.291,0.197,0.291,0.33c0,0.187-0.031,0.317-0.09,0.39c-0.061,0.073-0.123,0.11-0.191,0.11
		c-0.133,0-0.199-0.06-0.199-0.18c0-0.013,0.01-0.036,0.029-0.07c0.021-0.033,0.014-0.07-0.02-0.11s-0.104-0.077-0.209-0.11
		c-0.107-0.033-0.287-0.057-0.541-0.07c-0.213-0.013-0.402-0.02-0.57-0.02c-0.166,0-0.322,0-0.469,0c-0.307,0-0.584,0.003-0.83,0.01
		c-0.248,0.007-0.545,0.01-0.891,0.01h-0.459c-0.295,0-0.578,0.017-0.852,0.05c-0.273,0.033-0.543,0.063-0.809,0.09
		c-0.121,0.493-0.244,1.06-0.371,1.7c-0.127,0.64-0.256,1.297-0.391,1.97c-0.133,0.673-0.256,1.337-0.369,1.99
		c-0.113,0.653-0.209,1.233-0.289,1.74c-0.055,0.333-0.104,0.663-0.15,0.99c-0.047,0.326-0.084,0.649-0.111,0.97l-0.119,0.96
		l-0.34,3.54c0,0.227-0.004,0.402-0.01,0.529c-0.008,0.127-0.018,0.25-0.031,0.371c-0.012,0.119-0.02,0.256-0.02,0.41
		c0,0.152,0.02,0.355,0.061,0.609c-0.041,0.025-0.074,0.057-0.1,0.09c-0.027,0.033-0.055,0.051-0.08,0.051
		c-0.027,0-0.061-0.021-0.1-0.061c-0.107-0.066-0.174-0.236-0.201-0.51s-0.039-0.477-0.039-0.611l0.219-3.919
		c0-0.147,0.018-0.394,0.051-0.74s0.07-0.713,0.109-1.1c0.041-0.387,0.084-0.761,0.131-1.12c0.047-0.36,0.076-0.627,0.09-0.8
		c0.039-0.307,0.08-0.617,0.119-0.931c0.041-0.312,0.074-0.623,0.102-0.93c0.025-0.16,0.082-0.49,0.17-0.99
		c0.086-0.5,0.182-1.037,0.289-1.61s0.217-1.104,0.33-1.59c0.113-0.486,0.203-0.796,0.27-0.93c-0.16,0-0.332,0.013-0.52,0.04
		s-0.354,0.053-0.5,0.08c-0.119,0.027-0.197,0.043-0.23,0.05s-0.082,0.05-0.15,0.13l-3.58,4.9c-0.318,0.439-0.625,0.887-0.92,1.34
		c-0.293,0.453-0.592,0.907-0.898,1.36c-0.215,0.307-0.363,0.529-0.451,0.67c-0.086,0.14-0.139,0.247-0.16,0.319
		c-0.02,0.073-0.014,0.137,0.021,0.19c0.033,0.053,0.068,0.146,0.109,0.28c0.16,0.573,0.189,1.093,0.09,1.56
		s-0.283,0.946-0.551,1.44c-0.227,0.387-0.469,0.689-0.729,0.91c-0.262,0.219-0.498,0.33-0.711,0.33c-0.16,0-0.293-0.068-0.4-0.201
		c-0.106-0.133-0.16-0.354-0.16-0.66c0-0.146,0.027-0.336,0.08-0.569c0.054-0.233,0.094-0.41,0.121-0.53
		c0.16-0.507,0.346-0.953,0.559-1.34c0.215-0.387,0.434-0.807,0.66-1.26c-0.092-0.174-0.232-0.326-0.42-0.46
		c-0.186-0.133-0.379-0.25-0.58-0.35c-0.199-0.101-0.387-0.19-0.559-0.271c-0.174-0.08-0.301-0.153-0.38-0.22
		c-0.2-0.187-0.307-0.406-0.32-0.66c-0.013-0.253,0.03-0.493,0.13-0.72c0.1-0.227,0.243-0.424,0.43-0.59
		c0.187-0.167,0.387-0.25,0.6-0.25c0.188,0,0.34,0.053,0.461,0.159c0.133,0.094,0.205,0.214,0.219,0.36s-0.002,0.297-0.049,0.45
		s-0.107,0.3-0.18,0.439c-0.074,0.141-0.145,0.25-0.211,0.33c0.254,0.134,0.494,0.287,0.721,0.46l0.619,0.54L32,11.605l1.84-2.42
		c0.053-0.066,0.119-0.146,0.199-0.24s0.135-0.18,0.16-0.26c-0.119,0-0.387,0.037-0.799,0.11c-0.414,0.074-0.857,0.16-1.33,0.26
		c-0.475,0.1-0.924,0.197-1.35,0.29c-0.428,0.093-0.707,0.16-0.842,0.2l-3.159,0.74l-0.54,0.1c-0.067,0.027-0.15,0.05-0.25,0.07
		s-0.183,0.03-0.25,0.03C25.521,10.485,25.44,10.412,25.44,10.265z M26.661,15.385c0.066-0.026,0.116-0.063,0.15-0.11
		c0.033-0.046,0.062-0.116,0.09-0.21c0.025-0.053,0.053-0.123,0.08-0.21c0.025-0.086,0.025-0.149,0-0.189
		c0-0.026-0.014-0.04-0.041-0.04c-0.066,0-0.143,0.07-0.229,0.21S26.607,15.158,26.661,15.385z M27.141,21.485
		c0.186-0.055,0.361-0.201,0.529-0.44c0.166-0.24,0.297-0.434,0.391-0.58c0.16-0.267,0.266-0.514,0.318-0.74
		c0.055-0.227,0.08-0.437,0.08-0.63s-0.016-0.367-0.049-0.52c-0.033-0.153-0.051-0.29-0.051-0.41h-0.08
		c-0.027,0.12-0.08,0.246-0.16,0.38c-0.08,0.133-0.152,0.26-0.219,0.38c-0.068,0.133-0.127,0.264-0.18,0.39
		c-0.055,0.127-0.115,0.25-0.182,0.37c-0.133,0.293-0.24,0.59-0.318,0.891C27.141,20.875,27.114,21.178,27.141,21.485z M35.62,7.785
		c0.16,0,0.305-0.013,0.43-0.04c0.127-0.026,0.258-0.046,0.391-0.06l0.32-1.3c-0.039,0.027-0.117,0.107-0.23,0.24
		c-0.113,0.134-0.232,0.277-0.359,0.43s-0.244,0.303-0.35,0.45C35.713,7.652,35.647,7.745,35.62,7.785z"/>
	<path class="st2" d="M37.02,16.725c0-0.227,0.05-0.482,0.15-0.77c0.1-0.287,0.216-0.563,0.35-0.83c0.133-0.267,0.27-0.49,0.41-0.67
		c0.14-0.181,0.256-0.271,0.35-0.271c0.066,0,0.133,0.007,0.2,0.021c0.066,0.014,0.1,0.073,0.1,0.18c0,0.08-0.063,0.217-0.189,0.41
		c-0.127,0.193-0.257,0.427-0.391,0.7c-0.133,0.273-0.246,0.573-0.34,0.899c-0.093,0.327-0.1,0.664-0.02,1.011
		c0.2-0.054,0.376-0.19,0.531-0.41c0.152-0.221,0.256-0.443,0.31-0.67c0.013-0.066,0.017-0.153,0.01-0.261
		c-0.007-0.106-0.007-0.213,0-0.319s0.023-0.197,0.05-0.271c0.027-0.073,0.087-0.109,0.181-0.109c0.106,0,0.253,0.066,0.439,0.199
		c0.387,0.254,0.807,0.381,1.261,0.381c0.253,0,0.496-0.03,0.729-0.091c0.233-0.06,0.443-0.126,0.63-0.199s0.354-0.141,0.5-0.2
		c0.146-0.061,0.253-0.09,0.32-0.09c0.053,0,0.106,0.023,0.16,0.069c0.053,0.047,0.062,0.11,0.029,0.19s-0.119,0.173-0.26,0.28
		c-0.14,0.106-0.37,0.213-0.689,0.319c-0.228,0.067-0.443,0.127-0.65,0.181c-0.207,0.053-0.45,0.08-0.73,0.08
		c-0.253,0-0.453-0.014-0.6-0.04c-0.146-0.027-0.267-0.061-0.36-0.101c-0.093-0.04-0.173-0.08-0.239-0.12
		c-0.067-0.04-0.153-0.066-0.261-0.08c0,0.228-0.043,0.45-0.13,0.67c-0.087,0.221-0.196,0.414-0.33,0.58
		c-0.133,0.167-0.283,0.301-0.449,0.4c-0.167,0.1-0.325,0.15-0.471,0.15s-0.26-0.044-0.34-0.131s-0.14-0.193-0.18-0.319
		c-0.04-0.127-0.063-0.26-0.07-0.4C37.023,16.955,37.02,16.832,37.02,16.725z"/>
	<path class="st2" d="M43.221,15.785c0.026-0.026,0.036-0.037,0.03-0.03c-0.007,0.007,0.003-0.01,0.029-0.05l0.62-1.021
		c0.106-0.133,0.247-0.31,0.42-0.529c0.174-0.22,0.347-0.33,0.521-0.33c0.133,0,0.227,0.073,0.279,0.22
		c0.054,0.146,0.084,0.323,0.091,0.53c0.006,0.207,0.003,0.417-0.011,0.63c-0.013,0.213-0.02,0.394-0.02,0.54l0.16-0.221
		c0.279-0.492,0.517-0.833,0.71-1.02s0.356-0.28,0.49-0.28c0.106,0,0.199,0.05,0.279,0.15c0.08,0.1,0.15,0.217,0.21,0.35
		c0.061,0.134,0.12,0.273,0.181,0.42c0.06,0.147,0.123,0.261,0.189,0.341c0.187,0.227,0.396,0.393,0.63,0.5
		c0.233,0.106,0.483,0.159,0.75,0.159c0.4,0,0.813-0.106,1.24-0.319c0.106-0.04,0.19-0.08,0.25-0.12
		c0.061-0.04,0.13-0.094,0.21-0.16c0.026-0.013,0.093-0.057,0.2-0.13c0.106-0.073,0.206-0.11,0.3-0.11
		c0.093,0,0.14,0.061,0.14,0.181c0,0.093-0.069,0.206-0.21,0.34c-0.14,0.133-0.323,0.26-0.55,0.38s-0.483,0.224-0.77,0.31
		c-0.287,0.087-0.584,0.13-0.891,0.13c-0.267,0-0.529-0.043-0.79-0.13c-0.26-0.086-0.496-0.236-0.71-0.45
		c-0.146-0.159-0.29-0.369-0.43-0.63c-0.14-0.26-0.224-0.496-0.25-0.71c-0.08,0.04-0.146,0.087-0.2,0.141
		c-0.053,0.053-0.113,0.133-0.18,0.239c-0.12,0.147-0.22,0.29-0.3,0.431c-0.08,0.14-0.174,0.29-0.28,0.45
		c-0.04,0.066-0.094,0.14-0.16,0.22s-0.14,0.12-0.22,0.12c-0.146,0-0.254-0.066-0.32-0.2c-0.066-0.133-0.109-0.297-0.13-0.49
		c-0.02-0.193-0.023-0.403-0.01-0.63c0.013-0.227,0.02-0.44,0.02-0.64c-0.053,0.026-0.076,0.04-0.069,0.04
		c0.006,0-0.011,0.013-0.051,0.04l-0.479,0.659c-0.094,0.134-0.187,0.297-0.28,0.49c-0.093,0.193-0.184,0.377-0.27,0.55
		c-0.087,0.174-0.164,0.327-0.23,0.46c-0.066,0.134-0.113,0.214-0.14,0.24c-0.094,0.12-0.193,0.18-0.3,0.18
		c-0.214,0-0.32-0.159-0.32-0.479c0-0.146,0.013-0.343,0.04-0.59c0.026-0.247,0.066-0.497,0.12-0.75c0.053-0.253,0.12-0.47,0.2-0.65
		c0.08-0.18,0.166-0.27,0.26-0.27c0.146,0,0.229,0.036,0.25,0.109c0.02,0.074,0.01,0.177-0.03,0.311
		c-0.04,0.133-0.087,0.293-0.14,0.479C43.247,15.372,43.221,15.571,43.221,15.785z"/>
	<path class="st2" d="M52.121,14.585c0.026-0.053,0.069-0.123,0.13-0.21c0.06-0.087,0.13-0.13,0.21-0.13
		c0.146,0,0.229,0.033,0.25,0.1c0.02,0.067,0.01,0.174-0.03,0.32s-0.087,0.34-0.14,0.58c-0.054,0.24-0.08,0.54-0.08,0.899
		c0,0.36,0.13,0.664,0.39,0.91c0.26,0.247,0.563,0.37,0.91,0.37c0.427,0,0.837-0.094,1.229-0.28c0.394-0.187,0.73-0.38,1.011-0.58
		l1.42-1.1c0.106-0.106,0.206-0.16,0.3-0.16c0.066,0,0.113,0.023,0.14,0.07c0.027,0.047,0.04,0.09,0.04,0.13
		c0,0.12-0.076,0.257-0.229,0.41s-0.33,0.307-0.53,0.46s-0.394,0.293-0.58,0.42s-0.313,0.21-0.38,0.25
		c-0.347,0.227-0.733,0.433-1.16,0.62c-0.427,0.187-0.854,0.28-1.28,0.28c-0.56,0-1.003-0.167-1.329-0.5
		c-0.327-0.334-0.523-0.767-0.591-1.301c-0.04,0.027-0.093,0.098-0.159,0.21c-0.067,0.114-0.15,0.23-0.25,0.351
		c-0.101,0.12-0.211,0.229-0.33,0.33c-0.12,0.1-0.247,0.149-0.381,0.149c-0.079,0-0.159-0.02-0.239-0.06
		c-0.16-0.08-0.25-0.227-0.271-0.44c-0.02-0.213,0.01-0.442,0.09-0.689s0.2-0.486,0.36-0.721c0.16-0.232,0.333-0.416,0.521-0.55
		c0.253-0.173,0.453-0.26,0.6-0.26C51.881,14.465,52.001,14.505,52.121,14.585z M50.7,16.725c0.12-0.066,0.237-0.17,0.351-0.31
		c0.113-0.141,0.223-0.297,0.33-0.47c0.106-0.174,0.206-0.347,0.3-0.521c0.093-0.173,0.173-0.32,0.24-0.439
		c-0.107,0-0.2,0.026-0.28,0.079c-0.08,0.054-0.153,0.114-0.22,0.181c-0.08,0.053-0.144,0.113-0.19,0.18
		c-0.047,0.067-0.104,0.14-0.17,0.22c-0.106,0.147-0.193,0.301-0.26,0.46C50.733,16.265,50.7,16.472,50.7,16.725z"/>
	<path class="st2" d="M51.78,11.345c0-0.106-0.014-0.187-0.04-0.24c-0.026-0.053,0.026-0.14,0.16-0.26
		c0.199-0.187,0.569-0.38,1.109-0.58s1.12-0.393,1.74-0.58c0.62-0.187,1.217-0.353,1.79-0.5c0.573-0.146,1-0.253,1.28-0.32
		c0.106-0.027,0.21-0.05,0.31-0.07c0.101-0.02,0.196-0.043,0.29-0.07c0.16-0.013,0.257-0.026,0.29-0.04
		c0.033-0.013,0.07-0.093,0.11-0.24c0.066-0.16,0.14-0.337,0.22-0.53c0.08-0.193,0.213-0.29,0.4-0.29c0.146,0,0.232,0.037,0.26,0.11
		c0.026,0.073,0.03,0.16,0.01,0.26c-0.02,0.1-0.05,0.197-0.09,0.29s-0.06,0.167-0.06,0.22c0.119,0,0.25-0.013,0.39-0.04
		s0.283-0.047,0.43-0.06c0.307-0.053,0.587-0.097,0.84-0.13c0.254-0.033,0.504-0.056,0.75-0.07c0.247-0.013,0.5-0.023,0.761-0.03
		c0.26-0.007,0.55-0.01,0.869-0.01c0.4,0,0.717,0.07,0.95,0.21c0.233,0.14,0.391,0.297,0.471,0.47c0.079,0.173,0.093,0.33,0.04,0.47
		c-0.054,0.14-0.167,0.21-0.341,0.21c-0.053,0-0.1-0.006-0.14-0.02c0-0.213-0.004-0.35-0.01-0.41
		c-0.007-0.06-0.097-0.123-0.271-0.19c-0.253-0.08-0.606-0.12-1.06-0.12c-0.307,0-0.634,0.013-0.98,0.04s-0.684,0.06-1.01,0.1
		c-0.327,0.04-0.623,0.08-0.89,0.12c-0.268,0.04-0.474,0.074-0.62,0.1c-0.12,0.014-0.207,0.027-0.26,0.04
		c-0.054,0.014-0.091,0.03-0.11,0.05c-0.021,0.02-0.037,0.057-0.05,0.11c-0.014,0.053-0.033,0.133-0.061,0.24l-0.479,2.32
		c-0.107,0.427-0.228,0.993-0.36,1.7s-0.25,1.437-0.35,2.19c-0.101,0.753-0.164,1.467-0.19,2.14
		c-0.026,0.674,0.007,1.184,0.101,1.53c0.053,0.187,0.103,0.316,0.149,0.39s0.087,0.127,0.12,0.16s0.061,0.061,0.08,0.08
		c0.02,0.021,0.03,0.057,0.03,0.11c0,0.146-0.073,0.22-0.221,0.22c-0.159,0-0.347-0.153-0.56-0.46
		c-0.214-0.307-0.32-0.833-0.32-1.58c0-1.173,0.077-2.353,0.23-3.54c0.153-1.186,0.356-2.346,0.609-3.479l0.421-1.98
		c-0.12,0-0.344,0.04-0.671,0.12c-0.326,0.08-0.673,0.167-1.039,0.26c-0.367,0.093-0.714,0.187-1.04,0.28
		c-0.327,0.094-0.557,0.154-0.69,0.18l-2.38,0.8c-0.307,0.134-0.477,0.227-0.51,0.28s-0.083,0.08-0.15,0.08
		c-0.026,0-0.06-0.003-0.1-0.01C51.9,11.369,51.847,11.358,51.78,11.345z"/>
	<path class="st2" d="M59.34,15.865c0-0.267,0.08-0.533,0.24-0.801c0.16-0.267,0.356-0.506,0.59-0.72
		c0.233-0.213,0.477-0.386,0.73-0.52c0.253-0.133,0.479-0.2,0.68-0.2c0.333,0,0.5,0.187,0.5,0.56c0,0.134-0.067,0.271-0.2,0.41
		c-0.133,0.141-0.29,0.277-0.47,0.41c-0.18,0.134-0.367,0.25-0.561,0.35c-0.193,0.101-0.343,0.17-0.449,0.21
		c-0.134,0.04-0.237,0.074-0.311,0.101s-0.116,0.113-0.13,0.26c-0.026,0.254,0.066,0.507,0.28,0.76
		c0.213,0.254,0.473,0.38,0.78,0.38c0.306,0,0.63-0.05,0.97-0.149c0.34-0.101,0.677-0.224,1.01-0.37s0.653-0.313,0.96-0.5
		s0.587-0.36,0.84-0.521c0.026-0.013,0.09-0.053,0.19-0.119c0.1-0.067,0.196-0.101,0.29-0.101c0.093,0,0.14,0.067,0.14,0.2
		c0,0.054-0.037,0.117-0.11,0.19s-0.159,0.146-0.26,0.22c-0.1,0.073-0.2,0.14-0.3,0.2c-0.1,0.06-0.17,0.104-0.21,0.13
		c-0.227,0.133-0.49,0.276-0.79,0.43s-0.61,0.297-0.93,0.43c-0.32,0.134-0.637,0.247-0.95,0.341c-0.313,0.093-0.597,0.14-0.85,0.14
		c-0.428,0-0.813-0.16-1.16-0.48C59.513,16.785,59.34,16.372,59.34,15.865z M60.36,15.064c0.066,0,0.156-0.026,0.27-0.079
		c0.113-0.054,0.233-0.124,0.36-0.211c0.126-0.086,0.243-0.183,0.35-0.289c0.106-0.107,0.187-0.207,0.24-0.301
		c-0.187,0.027-0.413,0.137-0.68,0.33C60.633,14.708,60.453,14.892,60.36,15.064z"/>
	<path class="st2" d="M64.699,15.064c0-0.239,0.094-0.47,0.28-0.689s0.406-0.33,0.66-0.33c0.146,0,0.263,0.04,0.35,0.12
		s0.13,0.187,0.13,0.32c0,0.133-0.05,0.283-0.149,0.449c-0.101,0.167-0.277,0.33-0.53,0.49c0.054,0.187,0.173,0.354,0.36,0.5
		c0.187,0.146,0.333,0.273,0.439,0.38c0.12,0.16,0.243,0.32,0.37,0.48s0.21,0.347,0.25,0.56c0.106,0,0.22-0.02,0.34-0.06
		s0.227-0.073,0.32-0.101c0.427-0.12,0.877-0.3,1.35-0.54c0.474-0.239,0.877-0.493,1.21-0.76c0.027-0.026,0.077-0.07,0.15-0.13
		s0.153-0.127,0.24-0.2c0.086-0.073,0.18-0.137,0.28-0.189c0.1-0.054,0.183-0.08,0.25-0.08c0.093,0,0.14,0.066,0.14,0.2
		c0,0.119-0.107,0.263-0.32,0.43s-0.38,0.304-0.5,0.41c-0.359,0.293-0.713,0.526-1.06,0.699c-0.347,0.174-0.667,0.313-0.96,0.421
		c-0.294,0.106-0.557,0.189-0.79,0.25c-0.233,0.06-0.417,0.123-0.55,0.189c0,0.521-0.17,0.993-0.511,1.42
		c-0.34,0.427-0.703,0.747-1.09,0.96c-0.227,0.106-0.417,0.174-0.569,0.2c-0.154,0.026-0.323,0.04-0.511,0.04H63.92
		c-0.174,0-0.341-0.066-0.5-0.2c-0.16-0.133-0.25-0.307-0.271-0.52c-0.02-0.214,0.057-0.454,0.23-0.721
		c0.173-0.267,0.513-0.533,1.02-0.8c0.24-0.133,0.543-0.283,0.91-0.45c0.366-0.166,0.684-0.257,0.95-0.27
		c-0.014-0.134-0.057-0.25-0.13-0.35c-0.074-0.101-0.144-0.197-0.21-0.29c-0.054-0.027-0.094-0.061-0.12-0.101
		c-0.027-0.04-0.061-0.086-0.101-0.14c-0.279-0.24-0.517-0.46-0.71-0.66S64.699,15.492,64.699,15.064z M64.199,20.024
		c0.254,0,0.507-0.062,0.761-0.189c0.253-0.127,0.482-0.287,0.689-0.48s0.373-0.409,0.5-0.649s0.19-0.474,0.19-0.7
		c-0.268,0.066-0.537,0.156-0.811,0.27s-0.529,0.23-0.77,0.351c-0.227,0.12-0.44,0.26-0.641,0.42c-0.199,0.16-0.343,0.313-0.43,0.46
		s-0.097,0.27-0.03,0.37C63.727,19.975,63.906,20.024,64.199,20.024z M65.38,14.905c0.093-0.067,0.146-0.11,0.16-0.131
		c0.013-0.02,0.046-0.076,0.1-0.17c-0.107,0.027-0.17,0.058-0.19,0.091C65.43,14.729,65.406,14.798,65.38,14.905z"/>
	<path class="st2" d="M71.68,17.085c-0.174,0-0.294-0.047-0.36-0.14c-0.067-0.094-0.094-0.2-0.08-0.32
		c0.013-0.12,0.057-0.227,0.13-0.32c0.073-0.093,0.156-0.14,0.25-0.14h0.061c0.053,0,0.1,0.01,0.14,0.03
		c0.04,0.02,0.113,0.076,0.22,0.17c0.174,0.173,0.203,0.337,0.09,0.489C72.016,17.009,71.866,17.085,71.68,17.085z"/>
</g>
</svg>
